<?xml version="1.0" encoding="iso-8859-1"?>
<!-- Generator: Adobe Illustrator 19.0.0, SVG Export Plug-In . SVG Version: 6.00 Build 0)  -->
<svg version="1.1" id="Layer_1" xmlns="http://www.w3.org/2000/svg" xmlns:xlink="http://www.w3.org/1999/xlink" x="0px" y="0px"
	 viewBox="0 0 512 512" style="enable-background:new 0 0 512 512;" xml:space="preserve">
<rect x="7.837" y="176.347" style="fill:#4B92B9;" width="496.327" height="261.224"/>
<g>
	<rect x="39.184" y="207.694" style="fill:#CAF9F4;" width="26.122" height="26.122"/>
	<rect x="90.122" y="207.694" style="fill:#CAF9F4;" width="26.122" height="26.122"/>
	<rect x="141.061" y="207.694" style="fill:#CAF9F4;" width="26.122" height="26.122"/>
	<rect x="192" y="207.694" style="fill:#CAF9F4;" width="26.122" height="26.122"/>
	<rect x="242.939" y="207.694" style="fill:#CAF9F4;" width="26.122" height="26.122"/>
	<rect x="293.878" y="207.694" style="fill:#CAF9F4;" width="26.122" height="26.122"/>
	<rect x="344.816" y="207.694" style="fill:#CAF9F4;" width="26.122" height="26.122"/>
	<rect x="395.755" y="207.694" style="fill:#CAF9F4;" width="26.122" height="26.122"/>
	<rect x="446.694" y="207.694" style="fill:#CAF9F4;" width="26.122" height="26.122"/>
</g>
<g>
	<rect x="39.184" y="265.164" style="fill:#79CAE8;" width="26.122" height="26.122"/>
	<rect x="90.122" y="265.164" style="fill:#79CAE8;" width="26.122" height="26.122"/>
	<rect x="141.061" y="265.164" style="fill:#79CAE8;" width="26.122" height="26.122"/>
	<rect x="192" y="265.164" style="fill:#79CAE8;" width="26.122" height="26.122"/>
	<rect x="242.939" y="265.164" style="fill:#79CAE8;" width="26.122" height="26.122"/>
	<rect x="293.878" y="265.164" style="fill:#79CAE8;" width="26.122" height="26.122"/>
	<rect x="344.816" y="265.164" style="fill:#79CAE8;" width="26.122" height="26.122"/>
	<rect x="395.755" y="265.164" style="fill:#79CAE8;" width="77.061" height="26.122"/>
	<rect x="39.184" y="322.633" style="fill:#79CAE8;" width="77.061" height="26.122"/>
	<rect x="141.061" y="322.633" style="fill:#79CAE8;" width="26.122" height="26.122"/>
	<rect x="192" y="322.633" style="fill:#79CAE8;" width="26.122" height="26.122"/>
	<rect x="242.939" y="322.633" style="fill:#79CAE8;" width="26.122" height="26.122"/>
	<rect x="293.878" y="322.633" style="fill:#79CAE8;" width="26.122" height="26.122"/>
	<rect x="344.816" y="322.633" style="fill:#79CAE8;" width="26.122" height="26.122"/>
	<rect x="446.694" y="322.633" style="fill:#79CAE8;" width="26.122" height="26.122"/>
	<rect x="39.184" y="380.103" style="fill:#79CAE8;" width="26.122" height="26.122"/>
	<rect x="90.122" y="380.103" style="fill:#79CAE8;" width="50.939" height="26.122"/>
	<rect x="167.184" y="380.103" style="fill:#79CAE8;" width="152.816" height="26.122"/>
</g>
<g>
	<rect x="395.755" y="322.633" style="fill:#FF503D;" width="26.122" height="26.122"/>
	<rect x="344.816" y="380.103" style="fill:#FF503D;" width="26.122" height="26.122"/>
	<rect x="395.755" y="380.103" style="fill:#FF503D;" width="26.122" height="26.122"/>
	<rect x="446.694" y="380.103" style="fill:#FF503D;" width="26.122" height="26.122"/>
</g>
<path d="M0,168.51v276.898h512V168.51L0,168.51L0,168.51z M496.327,429.734H15.673V184.183h480.653V429.734z"/>
<path d="M73.143,199.857H31.347v41.796h41.796V199.857z M57.469,225.979H47.02V215.53h10.449V225.979z"/>
<path d="M124.082,199.857H82.286v41.796h41.796V199.857z M108.408,225.979H97.959V215.53h10.449V225.979z"/>
<path d="M175.02,199.857h-41.796v41.796h41.796V199.857z M159.347,225.979h-10.449V215.53h10.449V225.979z"/>
<path d="M225.959,199.857h-41.796v41.796h41.796V199.857z M210.286,225.979h-10.449V215.53h10.449V225.979z"/>
<path d="M276.898,199.857h-41.796v41.796h41.796V199.857z M261.224,225.979h-10.449V215.53h10.449V225.979z"/>
<path d="M327.837,199.857h-41.796v41.796h41.796V199.857z M312.163,225.979h-10.449V215.53h10.449V225.979z"/>
<path d="M378.775,199.857H336.98v41.796h41.796V199.857z M363.102,225.979h-10.449V215.53h10.449V225.979z"/>
<path d="M429.714,199.857h-41.796v41.796h41.796V199.857z M414.041,225.979h-10.449V215.53h10.449V225.979z"/>
<path d="M480.653,199.857h-41.796v41.796h41.796V199.857z M464.98,225.979h-10.449V215.53h10.449V225.979z"/>
<path d="M73.143,257.326H31.347v41.796h41.796V257.326z M57.469,283.448H47.02v-10.449h10.449V283.448z"/>
<path d="M124.082,257.326H82.286v41.796h41.796V257.326z M108.408,283.448H97.959v-10.449h10.449V283.448z"/>
<path d="M175.02,257.326h-41.796v41.796h41.796V257.326z M159.347,283.448h-10.449v-10.449h10.449V283.448z"/>
<path d="M225.959,257.326h-41.796v41.796h41.796V257.326z M210.286,283.448h-10.449v-10.449h10.449V283.448z"/>
<path d="M276.898,257.326h-41.796v41.796h41.796V257.326z M261.224,283.448h-10.449v-10.449h10.449V283.448z"/>
<path d="M327.837,257.326h-41.796v41.796h41.796V257.326z M312.163,283.448h-10.449v-10.449h10.449V283.448z"/>
<path d="M378.775,257.326H336.98v41.796h41.796V257.326z M363.102,283.448h-10.449v-10.449h10.449V283.448z"/>
<path d="M429.714,314.795h-41.796v41.796h41.796V314.795z M414.041,340.918h-10.449v-10.449h10.449V340.918z"/>
<path d="M480.653,257.326h-92.735v41.796h92.735V257.326z M464.98,283.448h-61.388v-10.449h61.388V283.448z"/>
<path d="M124.082,314.795H31.347v41.796h92.735V314.795z M108.408,340.918H47.02v-10.449h61.388V340.918z"/>
<path d="M175.02,314.795h-41.796v41.796h41.796V314.795z M159.347,340.918h-10.449v-10.449h10.449V340.918z"/>
<path d="M225.959,314.795h-41.796v41.796h41.796V314.795z M210.286,340.918h-10.449v-10.449h10.449V340.918z"/>
<path d="M276.898,314.795h-41.796v41.796h41.796V314.795z M261.224,340.918h-10.449v-10.449h10.449V340.918z"/>
<path d="M327.837,314.795h-41.796v41.796h41.796V314.795z M312.163,340.918h-10.449v-10.449h10.449V340.918z"/>
<path d="M378.775,314.795H336.98v41.796h41.796V314.795z M363.102,340.918h-10.449v-10.449h10.449V340.918z"/>
<path d="M438.857,356.591h41.796v-41.796h-41.796V356.591z M454.531,330.469h10.449v10.449h-10.449V330.469z"/>
<path d="M73.143,372.265H31.347v41.796h41.796V372.265z M57.469,398.387H47.02v-10.449h10.449V398.387z"/>
<path d="M82.286,414.061h66.612v-41.796H82.286V414.061z M97.959,387.938h35.265v10.449H97.959V387.938z"/>
<path d="M159.347,414.061h168.49v-41.796h-168.49V414.061z M175.02,387.938h137.143v10.449H175.02V387.938z"/>
<path d="M378.775,372.265H336.98v41.796h41.796V372.265z M363.102,398.387h-10.449v-10.449h10.449V398.387z"/>
<path d="M429.714,372.265h-41.796v41.796h41.796V372.265z M414.041,398.387h-10.449v-10.449h10.449V398.387z"/>
<path d="M438.857,414.061h41.796v-41.796h-41.796V414.061z M454.531,387.938h10.449v10.449h-10.449V387.938z"/>
<path d="M256,82.266c27.509,0,53.373,10.713,72.825,30.166l11.083-11.083c-22.413-22.412-52.214-34.756-83.91-34.756
	c-31.697,0-61.496,12.343-83.908,34.756l11.082,11.083C202.627,92.979,228.49,82.266,256,82.266z"/>
<path d="M199.75,129.009l11.082,11.082c12.064-12.064,28.106-18.709,45.167-18.709c17.062,0,33.102,6.645,45.167,18.709
	l11.083-11.082c-15.026-15.026-35.002-23.301-56.25-23.301C234.752,105.708,214.775,113.984,199.75,129.009z"/>
<g>
</g>
<g>
</g>
<g>
</g>
<g>
</g>
<g>
</g>
<g>
</g>
<g>
</g>
<g>
</g>
<g>
</g>
<g>
</g>
<g>
</g>
<g>
</g>
<g>
</g>
<g>
</g>
<g>
</g>
</svg>
