<?xml version="1.0" encoding="utf-8"?>
<!-- Generator: Adobe Illustrator 19.2.1, SVG Export Plug-In . SVG Version: 6.00 Build 0)  -->
<svg version="1.1" id="layer" xmlns="http://www.w3.org/2000/svg" xmlns:xlink="http://www.w3.org/1999/xlink" x="0px" y="0px"
	 viewBox="0 0 652 652" style="enable-background:new 0 0 652 652;" xml:space="preserve">
<style type="text/css">
	.st0{fill:url(#SVGID_1_);}
	.st1{fill:url(#SVGID_2_);}
	.st2{fill:url(#SVGID_3_);}
	.st3{fill:#333333;}
	.st4{fill:#BABCBE;}
	.st5{fill:#F05E27;}
</style>
<linearGradient id="SVGID_1_" gradientUnits="userSpaceOnUse" x1="27.3355" y1="-83.7197" x2="232.641" y2="-83.7197" gradientTransform="matrix(1 0 0 1 0 414)">
	<stop  offset="0" style="stop-color:#FBD900"/>
	<stop  offset="3.420000e-002" style="stop-color:#FACE03"/>
	<stop  offset="0.1662" style="stop-color:#F6AA0D"/>
	<stop  offset="0.3049" style="stop-color:#F28B16"/>
	<stop  offset="0.4501" style="stop-color:#EF741D"/>
	<stop  offset="0.6046" style="stop-color:#ED6321"/>
	<stop  offset="0.7748" style="stop-color:#EC5924"/>
	<stop  offset="0.991" style="stop-color:#EC5625"/>
	<stop  offset="1" style="stop-color:#EC5625"/>
</linearGradient>
<path class="st0" d="M227.9,401.2c-4.2-4.8-9.1-8.9-14.6-12.3c-9.4-6.4-19.4-11.6-30-15.5l-48.4-133.6c-0.9-2.7-2.2-5.2-3.9-7.5
	c-5.5-8.4-16.8-10.8-25.2-5.3c-2.1,1.4-3.9,3.2-5.3,5.3c-1.7,2.3-3,4.8-3.9,7.5l-69,190c-1,2.7,0.4,5.6,3.1,6.6
	c2.2,0.8,4.5,0.1,5.9-1.8c0.2-0.2,0.3-0.4,0.4-0.6c26.6-44.9,79.5-67.2,130.2-54.9l0,0c2.7,0.7,5.5,1.5,8.1,2.4l8.8,24.4l0,0.1
	c0,0.1,3.6,9.6,6.1,16c3,7.6,8.5,12.6,15.5,14.2c1.5,0.3,3,0.5,4.4,0.5c5.8-0.1,11.4-2.3,15.6-6.3c4.3-3.9,6.8-9.4,6.8-15.2
	C232.7,410,231,405.1,227.9,401.2z M74.4,382.8c-9.5,5.5-18.2,12.2-26,20l58.1-160c0.6-1.7,1.5-3.3,2.5-4.8
	c2.3-3.8,7.2-4.9,10.9-2.6c1.1,0.7,2,1.6,2.6,2.6c1.1,1.5,1.9,3.1,2.5,4.8L171,369.3C138.2,361.1,103.6,365.9,74.4,382.8z
	 M218.8,422.8c-2.9,2.8-6.9,4-10.8,3.3c-3.6-0.8-6.4-3.5-8.1-7.9c-2.4-6.2-5.8-15.2-6-15.8l-5.8-16c6.8,3.2,13.4,6.9,19.6,11
	c4.5,2.8,8.7,6.2,12.2,10.1C223.6,412.1,223.1,418.8,218.8,422.8z"/>
<linearGradient id="SVGID_2_" gradientUnits="userSpaceOnUse" x1="37.1044" y1="-14.4087" x2="175.3053" y2="-14.4087" gradientTransform="matrix(1 0 0 1 0 414)">
	<stop  offset="0.2768" style="stop-color:#FFFFFF;stop-opacity:0"/>
	<stop  offset="0.7917" style="stop-color:#080506;stop-opacity:0.12"/>
	<stop  offset="0.905" style="stop-color:#080506;stop-opacity:0.23"/>
</linearGradient>
<path class="st1" d="M139.2,365.4c-34,0-66.7,13.4-90.8,37.4l-1.5,4.2l-9.8,26.8c26.6-44.9,79.4-67.1,130.1-54.8l0,0
	c2.7,0.7,5.5,1.5,8.1,2.4l-4.4-12.1C160.6,366.7,149.9,365.4,139.2,365.4z"/>
<linearGradient id="SVGID_3_" gradientUnits="userSpaceOnUse" x1="183.3199" y1="-19.8802" x2="232.6407" y2="-19.8802" gradientTransform="matrix(1 0 0 1 0 414)">
	<stop  offset="0.1078" style="stop-color:#080506;stop-opacity:0.23"/>
	<stop  offset="0.2389" style="stop-color:#080506;stop-opacity:0.2"/>
	<stop  offset="0.8771" style="stop-color:#FFFFFF;stop-opacity:0"/>
</linearGradient>
<path class="st2" d="M227.9,401.2c-4.2-4.8-9.1-8.9-14.6-12.3c-9.4-6.4-19.4-11.6-30-15.5l4.7,13l0,0c6.8,3.2,13.4,6.9,19.6,11
	c4.5,2.8,8.7,6.2,12.2,10.1c1.6,2.1,2.5,4.7,2.5,7.4h10.3C232.6,410,231,405.1,227.9,401.2z"/>
<path class="st3" d="M234.7,305.2h-5.5l-5.3-11.9h-24.6l-5.3,11.9h-5.2l20.6-45.4h4.8L234.7,305.2z M211.7,265.8l-10.3,23h20.6
	L211.7,265.8z M274.4,285.9c0.1,3-0.4,5.9-1.4,8.7c-0.8,2.3-2.1,4.5-3.8,6.2c-1.7,1.7-3.7,3-5.9,3.8c-2.5,0.9-5.1,1.3-7.7,1.3
	c-2.6,0-5.2-0.4-7.6-1.3c-2.2-0.8-4.3-2.1-5.9-3.7c-1.7-1.7-3-3.9-3.8-6.2c-1-2.7-1.4-5.6-1.4-8.5v-26.2h5.1V286
	c-0.3,4.1,1,8.1,3.6,11.3c5.7,5.2,14.3,5.2,20.1,0.2c2.4-2.5,3.7-6.2,3.7-11.1v-26.2h5.1L274.4,285.9L274.4,285.9z M299.6,305.2
	h-5.1v-40.4h-15.1v-4.7h35.4v4.7h-15.1L299.6,305.2z M360,291.5c-1.1,2.7-2.7,5.3-4.7,7.4c-2.1,2.2-4.5,3.9-7.3,5.1
	c-6,2.5-12.8,2.5-18.8,0c-5.5-2.4-9.8-6.9-11.9-12.5c-1.1-2.9-1.7-5.9-1.6-8.9c0-3.1,0.6-6.1,1.7-8.9c1.1-2.7,2.7-5.3,4.7-7.4
	c2.1-2.2,4.5-3.9,7.3-5.1c6-2.5,12.8-2.5,18.8,0c5.5,2.4,9.8,6.9,11.9,12.5c1.1,2.9,1.7,5.9,1.6,8.9
	C361.6,285.7,361.1,288.7,360,291.5z M355,275.4c-1.7-4.4-5-8-9.4-9.9c-2.2-1-4.7-1.5-7.1-1.5c-2.4,0-4.9,0.5-7.1,1.4
	c-2.1,0.9-4,2.3-5.6,4c-1.6,1.7-2.8,3.7-3.6,5.9c-0.9,2.3-1.3,4.8-1.3,7.2c0,2.5,0.4,5,1.3,7.3c1.7,4.4,5,8,9.4,9.9
	c2.2,1,4.7,1.5,7.1,1.5c2.4,0,4.9-0.5,7.1-1.4c2.1-0.9,4-2.3,5.6-4c1.6-1.7,2.8-3.7,3.6-5.9c0.9-2.3,1.3-4.8,1.3-7.2
	C356.4,280.2,355.9,277.8,355,275.4z M390.5,292.9h-0.3l-16.4-24.1v36.5h-5v-45.1h5.2l16.4,24.6l16.4-24.6h5.2v45.1H407v-36.5
	L390.5,292.9z M463,305.2h-5.5l-5.3-11.9h-24.6l-5.3,11.9h-5.2l20.6-45.4h4.8L463,305.2z M439.9,265.8l-10.3,23h20.6L439.9,265.8z
	 M478.8,305.2h-5.1v-40.4h-15.1v-4.7H494v4.7h-15.2V305.2z M504.6,260.1v45.1h-5.1v-45.1H504.6z M556.6,291.5
	c-1.1,2.7-2.7,5.3-4.7,7.4c-2.1,2.2-4.5,3.9-7.3,5.1c-6,2.5-12.8,2.5-18.8,0c-5.5-2.4-9.8-6.9-11.9-12.5c-1.1-2.9-1.7-5.9-1.6-8.9
	c0-3.1,0.6-6.1,1.7-8.9c1.1-2.7,2.7-5.3,4.7-7.4c2.1-2.2,4.5-3.9,7.3-5.1c6-2.5,12.8-2.5,18.8,0c5.5,2.4,9.8,6.9,11.9,12.5
	c1.1,2.9,1.7,5.9,1.6,8.9C558.3,285.7,557.7,288.7,556.6,291.5z M551.7,275.4c-1.7-4.4-5-8-9.4-9.9c-2.2-1-4.7-1.5-7.1-1.5
	c-2.4,0-4.9,0.5-7.1,1.4c-2.1,0.9-4,2.3-5.6,4c-1.6,1.7-2.8,3.7-3.6,5.9c-0.9,2.3-1.3,4.8-1.3,7.2c0,2.5,0.4,5,1.3,7.3
	c1.7,4.4,5,8,9.4,9.9c2.2,1,4.7,1.5,7.1,1.5c2.4,0,4.9-0.5,7.1-1.4c2.1-0.9,4-2.3,5.6-4c1.6-1.7,2.8-3.7,3.6-5.9
	c0.9-2.3,1.3-4.8,1.3-7.2C553,280.2,552.6,277.8,551.7,275.4z M598.7,260.1h5v45.1h-4.1l-29.1-37v37h-5v-45.1h4.8l28.4,36.1
	L598.7,260.1L598.7,260.1z M249,328h9.1l19.3,45.4h-10.4l-4.1-10.1h-19.1l-4.1,10.1h-10.1L249,328z M259.5,354.6l-6-14.6l-6,14.6
	H259.5z M280.7,328.3h9.1l21.1,27.8v-27.8h9.8v45.1h-8.5l-21.8-28.7v28.7h-9.8V328.3z M340.8,355.7l-17.3-27.3h11.6l10.8,18.1
	l10.9-18.1h11.3l-17.3,27.1v18h-9.9L340.8,355.7z M369.2,328.3h10.6l9.4,30.5l10.1-30.7h8.5l10.1,30.7l9.4-30.5h10.4l-15.4,45.4
	h-8.6l-10.2-29.5l-10.2,29.5h-8.6L369.2,328.3z M441,328.3h9.9v17.9h18.3v-17.9h9.9v45.1h-9.9v-18.1h-18.3v18.1H441V328.3z
	 M487,328.3h34v8.8h-24.2v9.1H518v8.8h-21.3v9.5h24.5v8.8H487V328.3z M527.4,328.3H548c5.7,0,10.1,1.5,13.2,4.6
	c2.6,2.7,4.1,6.5,3.9,10.3v0.1c0.2,3.2-0.8,6.3-2.7,8.9c-1.8,2.3-4.2,4.1-7,5.1l11,16.1h-11.6l-9.7-14.4h-7.8v14.4h-9.9L527.4,328.3
	z M547.3,350.2c2,0.1,4-0.5,5.6-1.7c1.3-1.2,2-2.9,2-4.6v-0.1c0.1-1.8-0.6-3.6-2.1-4.8c-1.7-1.2-3.7-1.7-5.7-1.6h-9.9v13H547.3z
	 M570.8,328.3h34v8.8h-24.2v9.1h21.3v8.8h-21.3v9.5h24.5v8.8h-34.3V328.3z"/>
<path class="st4" d="M613.6,257.4h-2.9v-1.1h7.1v1.1h-2.9v7.5h-1.2L613.6,257.4L613.6,257.4z M619.4,256.4h1.3l2,4.6
	c0.2,0.5,0.4,1.2,0.4,1.2h0c0,0,0.2-0.7,0.4-1.2l2-4.6h1.3l0.7,8.6h-1.2l-0.4-5.4c0-0.5,0-1.3,0-1.3h0c0,0-0.3,0.8-0.5,1.3l-1.7,3.9
	h-1.1l-1.7-3.9c-0.2-0.5-0.5-1.3-0.5-1.3h0c0,0,0,0.8,0,1.3l-0.4,5.4h-1.2L619.4,256.4z"/>
<path class="st5" d="M398.6,391.7c3.1-0.1,6.1,0.9,8.5,2.9l-2.1,3.1c-1.7-1.4-3.9-2.2-6.1-2.2c-4.1-0.3-7.6,2.9-7.9,6.9
	c0,0.3,0,0.6,0,0.9c-0.3,4.2,2.9,7.9,7.1,8.2c0.2,0,0.4,0,0.6,0c2.1-0.1,4.2-0.9,5.7-2.4v-2.7H401V403h7.2v12h-3.5v-1.1
	c0-0.5,0-1,0-1h-0.1c-1.8,1.6-4.2,2.5-6.6,2.4c-6.2,0-11.3-5.1-11.2-11.3c0-0.2,0-0.4,0-0.6c-0.1-6.4,4.9-11.6,11.3-11.8
	C398.3,391.7,398.4,391.7,398.6,391.7z M420,398.2c4.8,0.2,8.4,4.3,8.2,9s-4.3,8.4-9,8.2c-4.6-0.2-8.2-4-8.2-8.6
	c0-4.8,3.9-8.6,8.7-8.6C419.8,398.2,419.9,398.2,420,398.2z M420,411.9c2.8,0.1,5.2-2.1,5.3-4.9c0.1-2.8-2.1-5.2-4.9-5.3
	c-2.8-0.1-5.2,2.1-5.3,4.9c0,0.1,0,0.2,0,0.2c-0.1,2.7,2,5,4.6,5.1C419.9,411.9,419.9,411.9,420,411.9z M440.2,392.1h4.1v7.1
	c0,0.5,0,0.9-0.1,1.4h0.1c1.1-1.6,3-2.5,4.9-2.4c4.4,0,7.3,3.5,7.3,8.6c0,5.2-3.2,8.6-7.5,8.6c-1.9,0.1-3.8-0.9-4.9-2.4h-0.1
	c0.1,0.4,0.1,0.7,0.1,1.1v0.9h-3.9V392.1z M448.2,411.9c2.3,0,4.1-1.8,4.1-5.1c0-3.1-1.7-5.2-4.1-5.2c-2.1,0-4.1,1.5-4.1,5.2
	C444.1,409.4,445.5,411.9,448.2,411.9z M467,398.2c4.7,0,7.3,3.4,7.3,7.8c0,0.5-0.1,1.6-0.1,1.6h-11.3c0.2,2.5,2.4,4.5,4.9,4.3
	c1.7-0.1,3.4-0.7,4.7-1.8l1.6,2.9c-1.8,1.5-4.2,2.4-6.6,2.4c-4.6,0.2-8.6-3.4-8.8-8c0-0.2,0-0.4,0-0.6c-0.3-4.5,3.1-8.3,7.6-8.6
	C466.6,398.2,466.8,398.2,467,398.2z M470.2,404.8c0.1-1.7-1.2-3.3-2.9-3.4c-0.1,0-0.2,0-0.3,0c-2-0.1-3.7,1.4-3.9,3.4H470.2z
	 M491.7,418.3c2.5,0,4.6-1.1,4.6-4v-1c0-0.3,0-0.6,0.1-0.9h-0.1c-1,1.5-2.7,2.4-4.6,2.2c-4.7,0-7.4-3.8-7.4-8.3
	c0-4.5,2.5-8.2,7.3-8.2c1.9-0.2,3.7,0.6,4.9,2.1h0.1c0-0.2,0-0.3,0-0.5v-1.3h3.8V414c0,5.7-4.4,7.8-8.7,7.8c-2,0-4-0.5-5.8-1.4
	l1.2-3.1C488.6,417.9,490.2,418.2,491.7,418.3z M496.5,406.4c0-3.8-1.8-4.7-4.1-4.7c-2.5,0-3.9,1.8-3.9,4.6c0,2.9,1.5,5,4.1,5
	C494.6,411.2,496.5,410.1,496.5,406.4z M505,398.6h3.9v2.8c0,0.4,0,0.8-0.1,1.2h0.1c0.6-2.4,2.7-4.1,5.2-4.2c0.3,0,0.5,0,0.7,0.1v4
	c-0.3-0.1-0.6-0.1-1-0.1c-2.1,0-3.9,1.4-4.5,3.4c-0.3,0.9-0.4,1.8-0.4,2.7v6.5H505V398.6z M524.8,398.2c4.7,0,7.3,3.4,7.3,7.8
	c0,0.5-0.1,1.6-0.1,1.6h-11.3c0.2,2.5,2.4,4.5,4.9,4.3c1.7-0.1,3.4-0.7,4.7-1.8l1.6,2.9c-1.8,1.5-4.2,2.4-6.6,2.4
	c-4.6,0.2-8.6-3.4-8.8-8c0-0.2,0-0.4,0-0.6c-0.3-4.5,3.1-8.3,7.6-8.6C524.4,398.2,524.6,398.2,524.8,398.2z M528,404.8
	c0.1-1.7-1.2-3.3-2.9-3.4c-0.1,0-0.2,0-0.3,0c-2-0.1-3.7,1.4-3.9,3.4H528z M543.8,404.7h0.5v-0.2c0-2.2-1.4-2.9-3.2-2.9
	c-1.6,0.1-3.2,0.6-4.5,1.6l-1.5-2.9c1.9-1.3,4.1-2,6.4-2c4.3,0,6.8,2.4,6.8,6.6V415h-3.8v-1.4c0-0.4,0-0.8,0.1-1.2h-0.1
	c-1,1.9-2.9,3-5,2.9c-2.9,0.2-5.3-1.9-5.5-4.7c0-0.1,0-0.3,0-0.4C534.1,405,541.2,404.7,543.8,404.7z M540.7,412.2
	c2.2-0.3,3.8-2.1,3.7-4.3v-0.4h-0.7c-2.1,0-5.5,0.3-5.5,2.6c0,1.2,1,2.2,2.2,2.2C540.5,412.2,540.6,412.2,540.7,412.2z M553.3,402.1
	h-2.1v-3.3h2.2v-4.7h4v4.7h3.7v3.3h-3.7v6.4c-0.1,1.6,1.1,3,2.7,3.1c0.2,0,0.4,0,0.5,0c0.3,0,0.5,0,0.7-0.1v3.6
	c-0.4,0.1-0.8,0.1-1.3,0.1c-2.3,0-6.8-0.7-6.8-6.2V402.1z M564.6,410.9h4.1v4.1h-4.1V410.9z"/>
</svg>
