<?xml version="1.0" encoding="utf-8"?>
<!-- Generator: Adobe Illustrator 19.2.1, SVG Export Plug-In . SVG Version: 6.00 Build 0)  -->
<svg version="1.1" id="layer" xmlns="http://www.w3.org/2000/svg" xmlns:xlink="http://www.w3.org/1999/xlink" x="0px" y="0px"
	 viewBox="0 0 652 652" style="enable-background:new 0 0 652 652;" xml:space="preserve">
<style type="text/css">
	.st0{fill:#006CB7;}
</style>
<path class="st0" d="M305.7,340.6c7.8,9.9,14.9,14.9,23.6,14.9c12.9,0,20.6-11.6,20.6-33s-7.7-33-20.6-33c-8.7,0-15.8,4.8-23.6,14.7
	V340.6z M296.4,283.1h6.9l2.4,10.2h0.7c7.4-7.8,15.2-11.7,23.6-11.7c17.1,0,29.1,14.9,29.1,40.7c0,25.8-12,40.7-29.1,40.7
	c-8.4,0-16.2-3.8-23.6-11.6h-0.7v38.7h-9.3V283.1z M376.9,283.1h9.2v13.7h0.9c5.4-10.4,12.3-15,22.5-15h0.5v9h-1.2
	c-11,0-18.2,6.3-22.7,21.2v49.7h-9.2V283.1z M423.8,283.1h9.2v78.5h-9.2V283.1z M480.2,355.6c9.8,0,16.2-6.2,16.2-14.4
	c0-9.5-7.4-11.6-20.3-16.4c-15.9-5.9-24.2-10.4-24.2-22.4c0-12,9.8-20.9,25.4-20.9c10.2,0,19.2,5,26.1,14.4l-6.6,4.8
	c-6-8-12.5-11.7-21.2-11.7c-8.6,0-14.1,5.3-14.1,12.9c0,8.4,7.7,10.4,20.7,15.3c15.6,5.9,23.6,10.7,23.6,23.1
	c0,13.1-10.5,22.5-26.7,22.5c-12.3,0-21.8-5-29.6-15.5l6.9-5.6C463.2,351,471,355.6,480.2,355.6 M522.8,283.1h8.6v12.2h0.6
	c8.3-9,17-13.5,25.2-13.5c8.9,0,15.2,4.5,18.8,13.5h1.1c8.6-9,16.8-13.5,25.2-13.5c13.2,0,19.8,8.4,19.8,25.2v54.7h-8.9v-51.3
	c0-13.8-2.4-20.4-13.5-20.4c-7.2,0-15,4.8-22.7,14.6v57.2h-9v-51.3c0-13.8-2.4-20.4-13.5-20.4c-7.2,0-14.9,4.8-22.7,14.6v57.2h-9
	V283.1z M54.1,351.1c12,0,19.1-9.8,19.1-28.2c0-19.4-6.9-29.3-19.5-29.3c-6.2,0-11.6,3.2-16.7,9.5v38.3
	C42.1,347.8,47.7,351.1,54.1,351.1 M37,252.8v38.7c4.8-6.5,11.4-9.8,19.2-9.8c18.9,0,31.5,15,31.5,40.1c0,26.1-11.9,41.1-31.4,41.1
	c-8.7,0-15.6-3.3-21-10.4l-2.3,9H22c0.8-7.8,0.9-15.2,0.9-22.1v-86.8H37z M118.5,361.6h-14.1V252.8h14.1V361.6z M155,283v52.8
	c0,10.4,3.3,15.2,11.6,15.2c6.2,0,12.8-3.5,19.5-10.4V283h14.3v78.7h-13.2V351c-8.7,7.8-16.4,11.9-25.2,11.9
	c-13.4,0-21.2-8.3-21.2-23.1V283H155z M248.3,293c-10.4,0-16.8,7.4-17.4,20.9h34.1C264.6,300.5,258.2,293,248.3,293 M230.7,324.9
	v1.5c0,15.9,7.2,24.8,19.7,24.8c8.3,0,14.6-4.1,19.1-12.3l10.5,6.5c-6.5,11.7-16.8,17.9-30.3,17.9c-21.5,0-33.3-14-33.3-39.9
	c0-26.9,12-41.6,32.4-41.6c18.8,0,30.8,14.3,30.8,39.2c0,1.4-0.2,2.7-0.2,4.1H230.7z"/>
<path class="st0" d="M610,262.1h2.3c1.5,0,2.4-0.3,2.4-1.8c0-1.3-1.2-1.7-2.4-1.7H610V262.1z M608.1,257h4.5c2.7,0,4,1.1,4,3.3
	c0,1.9-1.2,3.3-3,3.3l3.3,5.2h-2l-3.3-5.2H610v5.2h-1.9V257z M611.9,271.5c4.6,0,8.1-3.7,8.1-8.6c0-4.8-3.5-8.6-8.1-8.6
	c-4.7,0-8.2,3.7-8.2,8.6C603.8,267.8,607.3,271.5,611.9,271.5 M611.9,252.9c5.5,0,10.1,4.5,10.1,10.1c0,5.5-4.5,10.1-10.1,10.1
	c-5.6,0-10.1-4.5-10.1-10.1C601.8,257.4,606.4,252.9,611.9,252.9"/>
</svg>
