<?xml version="1.0" encoding="utf-8"?>
<!-- Generator: Adobe Illustrator 19.2.1, SVG Export Plug-In . SVG Version: 6.00 Build 0)  -->
<svg version="1.1" id="layer" xmlns="http://www.w3.org/2000/svg" xmlns:xlink="http://www.w3.org/1999/xlink" x="0px" y="0px"
	 viewBox="0 0 652 652" style="enable-background:new 0 0 652 652;" xml:space="preserve">
<style type="text/css">
	.st0{fill:#008CCF;}
</style>
<path d="M616.4,345c-0.4-8.9-7.6-12.9-16.3-12.9c-6.8,0-14.7,2.4-14.7,10.2c0,6.4,7.7,8.7,12.9,10l10.1,2.2
	c8.7,1.3,17.8,6.1,17.8,16.4c0,12.8-13.4,17.8-25,17.8c-14.4,0-24.4-6.4-25.6-20.9h7.6c0.6,9.7,8.2,14.8,18.3,14.8
	c7.2,0,17-3,17-11.2c0-6.9-6.8-9.2-13.6-10.8l-9.8-2.1c-9.9-2.4-17.4-5.7-17.4-15.8c0-12,12.4-16.6,23.4-16.6
	c12.5,0,22.4,6.2,22.8,19H616.4z M484.1,386.8h7.6v-33c0.1-12.4,5.4-21.8,18.6-21.8c9.7,0,13.2,6.6,13,14.7v40.2h7.6v-33.6
	c0-11,3.7-21.3,16.9-21.3c10.9,0,14.7,5.3,14.7,15v39.8h7.6v-40.1c0-14-7-20.8-20.6-20.8c-8.3-0.3-16,4.2-19.8,11.6
	c-2.3-7.8-9.6-11.6-17.9-11.6c-8.5-0.4-16.5,4.2-20.4,11.7h-0.4v-10h-7L484.1,386.8z M477.7,359.2c0.6-16.6-7.6-33.3-27.4-33.3
	c-19.8,0-28.2,15.7-28.2,31.3c0,16.9,8.3,31.3,28.2,31.3c15.7,0,23.9-7.8,27.1-21.2h-7.6c-2.4,8.9-8.4,15.1-19.5,15.1
	c-14.6,0-20.4-12.7-20.5-23.3H477.7z M429.8,353.1c1.2-10.8,8.2-21.1,20.5-21.1c12.3,0,19.4,10.2,19.8,21.1H429.8z M407.6,310H400
	v17.7h-10.9v6.1H400v40.5c-0.1,10.1,3.4,13.3,13.5,13.3c2.3,0,4.4-0.2,6.8-0.2v-6.2c-2.2,0.2-4.3,0.3-6.5,0.3
	c-5.4-0.3-6.2-3-6.2-7.8v-39.9h12.7v-6.1h-12.7V310z M388,345c-0.5-12.8-10.4-19-22.8-19c-11,0-23.4,4.7-23.4,16.6
	c0,10.1,7.5,13.4,17.4,15.8l9.8,2.1c6.9,1.6,13.6,3.9,13.6,10.8c0,8.3-9.8,11.2-17,11.2c-10.1,0-17.7-5-18.3-14.8h-7.6
	c1.2,14.4,11.2,20.9,25.6,20.9c11.6,0,25-4.9,25-17.8c0-10.3-9-15.1-17.7-16.4l-10.1-2.2c-5.2-1.2-12.9-3.6-12.9-10
	c0-7.8,8-10.2,14.7-10.2c8.7,0,15.9,4,16.3,12.9H388z M310.6,386.7l-2.7,6.7c-2.5,5.5-4.1,9.3-10.9,9.3c-1.7,0-3.5-0.2-5.2-0.6v6.1
	c1.9,0.5,3.9,0.7,5.8,0.6c9.5,0,12.1-2.9,16.4-12.8l27-68.2h-7.6L314.4,378l-20.5-50.4h-8.1L310.6,386.7z M285.3,345
	c-0.5-12.8-10.4-19-22.8-19c-11,0-23.4,4.7-23.4,16.6c0,10.1,7.5,13.4,17.4,15.8l9.8,2.1c6.9,1.6,13.6,3.9,13.6,10.8
	c0,8.3-9.8,11.2-17,11.2c-10.1,0-17.7-5-18.3-14.8h-7.7c1.2,14.4,11.2,20.9,25.6,20.9c11.6,0,25-4.9,25-17.8
	c0-10.3-9-15.1-17.7-16.4l-10.1-2.2c-5.2-1.2-12.9-3.6-12.9-10c0-7.8,8-10.2,14.7-10.2c8.7,0,15.9,4,16.3,12.9H285.3z M275,287.8
	l-2.4-1c-1-0.4-0.7-2.8-0.7-2.8c0.4-2.9,0.4-5.9,0-8.8c0,0-0.4-2.4,0.6-2.8l2.4-1c1.1-0.5,1.6-1.8,1.2-2.9l-3-7.2
	c-0.5-1.1-1.7-1.6-2.9-1.2l-2.4,1c-1,0.4-2.4-1.5-2.4-1.5c-1.8-2.3-3.9-4.4-6.2-6.2c0,0-1.9-1.4-1.5-2.4l1-2.4
	c0.5-1.1-0.1-2.4-1.2-2.8c0,0,0,0,0,0l-7.2-2.9c-1.1-0.5-2.4,0.1-2.8,1.2c0,0,0,0,0,0l-1,2.4c-0.4,1-2.8,0.7-2.8,0.7
	c-1.1-0.1-2.2-0.2-3.3-0.2v13.2c10.8,0.4,19.2,9.4,18.8,20.2c-0.4,10.3-8.6,18.5-18.8,18.9v13.3c1.2,0,2.3-0.1,3.5-0.2
	c0,0,2.4-0.3,2.8,0.6l1,2.4c0.5,1.1,1.8,1.6,2.9,1.2l7.2-3c1.1-0.5,1.6-1.8,1.2-2.9l-1-2.4c-0.4-1,1.5-2.4,1.5-2.4
	c2.3-1.8,4.4-3.9,6.2-6.3c0,0,1.4-1.9,2.4-1.5l2.4,1c1.1,0.5,2.4,0,2.9-1.2c0,0,0,0,0,0l2.9-7.2C276.7,289.6,276.1,288.3,275,287.8"
	/>
<path class="st0" d="M172.5,327.5h13v8h0.3c3.9-6.8,11.3-9.6,19.3-9.6c19.7,0,29.2,14.2,29.2,31.5c0,16-8.5,31-26.9,31
	c-8,0-16.5-2.8-20.9-9.3h-0.2v29.5h-13.8V327.5z M203.2,336.3c-11.6,0-17.5,8.4-17.5,21c0,12,6.4,20.9,17.5,20.9
	c12.5,0,17.3-10.6,17.3-20.9C220.4,346.5,214.5,336.3,203.2,336.3 M151.2,335v51.8H165v-81.9h-13.8V335z M100,360.6
	c0,9.3,5.3,17.6,16.8,17.6c8,0,12.8-3.3,15.2-9.9h13c-3,13-14.6,20.2-28.3,20.2c-19.5,0-30.6-13-30.6-31.2
	c0-16.8,11.6-31.3,30.2-31.3c19.7,0,31.8,16.8,29.5,34.6H100z M132.2,352c-0.4-8.3-6.4-15.6-15.7-15.6c-8.8-0.3-16.2,6.7-16.4,15.5
	c0,0.1,0,0.2,0,0.2L132.2,352z M26.2,386.8h13.7v-34.9c0-0.4,0-0.8,0-1.2c0.2-8.2,6.9-14.6,15.1-14.4c8.2,0,12,3.9,12.3,13.2v37.3
	H81v-40.8c0-13.3-8.6-20.2-22.1-20.2c-7.4-0.2-14.5,3.3-18.7,9.4H40v-30.4H26.2V386.8z M231.4,247.1c-18.1,0-32.8,14.6-32.8,32.7
	c0,5.3,1.3,10.6,3.8,15.3c-3.1,6.8-6.8,13.3-11,19.5c0,0-0.4,0.8,0.6,0.7c3.8-0.9,15.5-3.8,21.9-7.8c5.2,3.3,11.3,5.1,17.5,5.1
	c0.6,0,1.2,0,1.8,0v-65.3C232.7,247.1,232.1,247.1,231.4,247.1"/>
</svg>
