<?xml version="1.0" encoding="UTF-8" standalone="no"?>
<!-- Created with Inkscape (http://www.inkscape.org/) -->

<svg
   xmlns:dc="http://purl.org/dc/elements/1.1/"
   xmlns:cc="http://creativecommons.org/ns#"
   xmlns:rdf="http://www.w3.org/1999/02/22-rdf-syntax-ns#"
   xmlns:svg="http://www.w3.org/2000/svg"
   xmlns="http://www.w3.org/2000/svg"
   xmlns:sodipodi="http://sodipodi.sourceforge.net/DTD/sodipodi-0.dtd"
   xmlns:inkscape="http://www.inkscape.org/namespaces/inkscape"
   width="190.99998"
   height="34.599998"
   viewBox="0 0 50.535411 9.1545826"
   version="1.1"
   id="svg8"
   inkscape:version="0.92.0 r15299"
   sodipodi:docname="kofax.svg">
  <defs
     id="defs2">
	
	

		
		
		
		
		
		
		
		
		
	
		
		
		
		
		
	</defs>
  <sodipodi:namedview
     id="base"
     pagecolor="#ffffff"
     bordercolor="#666666"
     borderopacity="1.0"
     inkscape:pageopacity="0.0"
     inkscape:pageshadow="2"
     inkscape:zoom="4.7210527"
     inkscape:cx="94.999999"
     inkscape:cy="16.799988"
     inkscape:document-units="mm"
     inkscape:current-layer="layer1"
     showgrid="false"
     fit-margin-top="0"
     fit-margin-left="0"
     fit-margin-right="0"
     fit-margin-bottom="0"
     units="px"
     inkscape:window-width="1280"
     inkscape:window-height="744"
     inkscape:window-x="-4"
     inkscape:window-y="-4"
     inkscape:window-maximized="1" />
  <metadata
     id="metadata5">
    <rdf:RDF>
      <cc:Work
         rdf:about="">
        <dc:format>image/svg+xml</dc:format>
        <dc:type
           rdf:resource="http://purl.org/dc/dcmitype/StillImage" />
        <dc:title></dc:title>
      </cc:Work>
    </rdf:RDF>
  </metadata>
  <g
     inkscape:label="Layer 1"
     inkscape:groupmode="layer"
     id="layer1"
     transform="translate(-273.46577,-207.62375)">
    <g
       id="g247"
       transform="translate(0.13229131,-0.13228934)">
      <path
         style="stroke-width:0.26458332"
         inkscape:connector-curvature="0"
         d="m 273.46577,208.68208 h 2.40771 v 2.93688 l 3.01625,-2.93688 h 3.20146 l -3.28084,2.93688 3.51896,4.55083 h -3.20146 l -2.2225,-2.98979 -1.03187,0.87312 v 2.11667 h -2.40771 z"
         id="path144" />
      <path
         style="stroke-width:0.26458332"
         inkscape:connector-curvature="0"
         d="m 286.32452,208.44396 c 2.54,0 4.70958,0.87312 4.70958,3.99521 0,3.12208 -2.14312,3.96875 -4.70958,3.96875 -2.54,0 -4.70958,-0.87313 -4.70958,-3.96875 0.0265,-3.12209 2.16958,-3.99521 4.70958,-3.99521 z m 0,6.29708 c 1.29646,0 2.14312,-0.71437 2.14312,-2.30187 0,-1.56105 -0.84666,-2.30188 -2.14312,-2.30188 -1.27,0 -2.14313,0.74083 -2.14313,2.30188 0,1.56104 0.87313,2.30187 2.14313,2.30187 z"
         id="path146" />
      <path
         style="stroke-width:0.26458332"
         inkscape:connector-curvature="0"
         d="m 291.69556,208.68208 h 6.87917 v 1.69334 h -4.47146 v 1.29645 h 4.15396 v 1.61396 h -4.15396 v 2.91042 h -2.40771 z"
         id="path148" />
      <path
         style="stroke-width:0.26458332"
         inkscape:connector-curvature="0"
         d="m 300.92952,208.68208 h 2.93687 l 3.09563,7.51417 h -2.56646 l -0.42333,-1.21708 h -3.14854 l -0.42334,1.21708 h -2.59291 z m 1.45521,1.87854 v 0 l -1.03188,2.83105 h 2.01084 z"
         id="path150" />
      <path
         style="stroke-width:0.26458332"
         inkscape:connector-curvature="0"
         d="m 309.60785,212.28042 -2.80458,-3.59834 h 2.8575 l 1.32292,2.01084 1.32291,-2.01084 h 2.8575 l -2.77812,3.59834 3.12208,3.88937 h -2.98979 l -1.53458,-2.27542 -1.53459,2.27542 h -2.98979 z"
         id="path152" />
      <polygon
         transform="matrix(0.26458333,0,0,0.26458333,273.46577,207.7825)"
         style="fill:#0079c0"
         class="st0"
         points="160.7,13.3 158.4,10.9 160.7,8.6 163.1,10.9 "
         id="polygon156" />
      <polygon
         transform="matrix(0.26458333,0,0,0.26458333,273.46577,207.7825)"
         style="fill:#0079c0"
         class="st0"
         points="160.7,20.2 158.4,17.9 160.7,15.6 163,17.9 "
         id="polygon158" />
      <polygon
         transform="matrix(0.26458333,0,0,0.26458333,273.46577,207.7825)"
         style="fill:#0079c0"
         class="st0"
         points="160.7,26.4 159.2,24.9 160.7,23.5 162.2,24.9 "
         id="polygon160" />
      <polygon
         transform="matrix(0.26458333,0,0,0.26458333,273.46577,207.7825)"
         style="fill:#0079c0"
         class="st0"
         points="167.7,27.2 165.3,24.9 167.7,22.6 170,24.9 "
         id="polygon162" />
      <polygon
         transform="matrix(0.26458333,0,0,0.26458333,273.46577,207.7825)"
         style="fill:#0079c0"
         class="st0"
         points="174.9,28.2 171.8,25.1 174.9,22 178.1,25.1 "
         id="polygon164" />
      <path
         style="fill:#0079c0;stroke-width:0.26458332"
         inkscape:connector-curvature="0"
         class="st0"
         d="m 317.7041,216.51375 c 0.0794,0.0265 0.15875,0.0529 0.26459,0.0794 l 0.3175,-0.3175 -0.39688,-0.42333 -0.39687,0.42333 z"
         id="path166" />
      <path
         style="fill:#0079c0;stroke-width:0.26458332"
         inkscape:connector-curvature="0"
         class="st0"
         d="m 319.63556,216.77833 c 0.0794,0 0.18521,-0.0265 0.26458,-0.0265 l 0.47625,-0.47625 -0.60854,-0.60854 -0.60854,0.60854 z"
         id="path168" />
      <path
         style="fill:#0079c0;stroke-width:0.26458332"
         inkscape:connector-curvature="0"
         class="st0"
         d="m 321.11723,216.40792 c 0.26458,-0.1323 0.52916,-0.26459 0.79375,-0.4498 l -0.29104,-0.29104 -0.60855,0.635 z"
         id="path170" />
      <path
         style="fill:#0079c0;stroke-width:0.26458332"
         inkscape:connector-curvature="0"
         class="st0"
         d="m 320.8791,208.20583 c 1.66688,0.635 2.8575,2.24896 2.8575,4.15396 0,0.89958 -0.26458,1.71979 -0.71437,2.40771 l -0.34396,-0.37042 0.68792,-0.68791 c 0.0264,-0.0529 0.0264,-0.10584 0.0529,-0.18521 l -0.79375,-0.76729 -0.92604,0.92604 0.71438,0.71437 -0.82021,0.84667 -0.82021,-0.84667 0.71437,-0.71437 -0.92604,-0.92604 -0.84666,0.79375 -1.03188,-1.03188 -0.82021,0.82021 -0.84666,-0.84667 0.84666,-0.82021 0.82021,0.79375 0.92604,-0.89958 -0.89958,-0.89958 -0.82021,0.79375 -0.82021,-0.82021 0.82021,-0.82021 0.82021,0.79375 0.92604,-0.92604 -0.92604,-0.92604 -0.82021,0.79375 -0.84667,-0.82021 0.47625,-0.47625 c 0.15875,-0.0794 0.34396,-0.13229 0.52917,-0.18521 l 0.66146,0.66146 0.84667,-0.84667 c 0.15875,0 0.3175,0.0265 0.44979,0.0529 l 0.58208,0.58208 z m -0.3175,2.24896 0.71438,-0.71437 -0.71438,-0.71438 -0.71437,0.68792 z m 2.43417,-0.34396 c -0.18521,-0.29104 -0.39688,-0.55562 -0.635,-0.79375 l -0.42333,0.42334 0.71437,0.71437 z m -0.37042,2.16959 0.68792,-0.68792 -0.68792,-0.68792 -0.68791,0.71438 z m -2.06375,0 0.68792,-0.68792 -0.68792,-0.68792 -0.66146,0.68792 z"
         id="path172" />
    </g>
  </g>
  <style
     id="style142"
     type="text/css">
	.st0{fill:#0079C0;}
</style>
</svg>
