<?xml version="1.0" standalone="no"?>
<!DOCTYPE svg PUBLIC "-//W3C//DTD SVG 20010904//EN"
 "http://www.w3.org/TR/2001/REC-SVG-20010904/DTD/svg10.dtd">
<svg version="1.0" xmlns="http://www.w3.org/2000/svg"
 width="1200.000000pt" height="628.000000pt" viewBox="0 0 1200.000000 628.000000"
 preserveAspectRatio="xMidYMid meet">

<g transform="translate(0.000000,628.000000) scale(0.100000,-0.100000)"
fill="#000000" stroke="none">
<path d="M27 4974 c-4 -4 -7 -409 -7 -900 l0 -893 23 -3 c12 -2 86 -2 165 0
l142 3 0 335 c-1 184 2 339 5 344 3 6 22 0 43 -14 20 -13 98 -57 172 -99 74
-41 225 -126 335 -187 110 -62 225 -126 255 -143 30 -17 105 -58 165 -92 61
-35 137 -77 170 -95 33 -18 65 -36 70 -41 13 -9 657 -17 647 -7 -6 5 -441 251
-612 346 -25 14 -94 53 -155 87 -60 34 -137 77 -170 95 -33 18 -105 58 -160
90 -55 31 -127 72 -160 90 -91 49 -309 173 -315 178 -3 2 4 11 15 19 18 13
520 296 675 380 36 20 94 53 130 73 36 21 175 100 310 175 135 76 287 162 339
192 52 29 98 53 102 53 5 0 9 5 9 10 0 12 -626 14 -632 3 -1 -5 -19 -16 -38
-25 -19 -10 -64 -34 -100 -54 -170 -96 -528 -299 -555 -314 -16 -9 -57 -31
-90 -50 -33 -18 -80 -45 -105 -60 -99 -60 -342 -192 -346 -187 -2 2 -5 159 -7
348 l-2 344 -156 3 c-85 1 -158 -1 -162 -4z"/>
<path d="M2480 4080 l0 -900 155 0 155 0 0 370 0 370 306 0 305 0 167 -163
c92 -90 234 -228 316 -307 82 -80 177 -173 211 -207 l63 -63 221 0 c127 0 221
4 221 9 0 5 -4 11 -9 13 -7 2 -435 416 -694 671 -27 27 -46 52 -41 56 5 4 58
15 119 25 270 44 459 150 527 296 86 183 42 390 -106 511 -115 94 -262 148
-501 184 -163 24 -243 27 -842 31 l-573 4 0 -900z m1365 572 c124 -15 241 -47
295 -80 143 -88 110 -229 -70 -295 -111 -41 -211 -47 -757 -47 l-523 0 0 221
0 220 483 -4 c265 -3 523 -9 572 -15z"/>
<path d="M4580 4972 c0 -5 62 -69 139 -143 196 -190 800 -780 822 -803 18 -19
19 -44 19 -433 0 -360 2 -413 15 -413 8 0 79 -1 158 -1 l142 0 3 417 2 417 43
42 c48 48 653 635 823 800 63 61 114 113 114 118 0 4 -98 7 -217 7 l-218 -1
-152 -147 c-393 -382 -545 -527 -554 -530 -5 -2 -78 64 -162 146 -84 83 -181
178 -217 212 -36 34 -125 120 -197 191 l-133 129 -215 0 c-118 0 -215 -4 -215
-8z"/>
<path d="M9330 4958 c0 -13 -1 -418 -3 -901 l-2 -877 158 0 157 0 0 660 c0
458 3 660 11 660 8 0 79 -61 139 -120 8 -8 40 -37 70 -65 193 -175 635 -579
640 -586 3 -3 32 -29 65 -59 67 -59 242 -220 350 -320 38 -36 96 -89 127 -118
l57 -52 145 0 146 0 0 900 0 901 -152 -3 -153 -3 -3 -662 c-1 -485 -5 -663
-13 -663 -12 0 -48 31 -159 135 -30 28 -107 98 -170 155 -63 58 -117 107 -120
110 -3 3 -36 35 -75 70 -142 129 -162 147 -400 366 -61 56 -122 112 -136 125
-54 49 -226 207 -304 278 -44 41 -81 78 -83 83 -2 4 -69 8 -148 8 -143 0 -144
0 -144 -22z"/>
<path d="M11668 4973 c20 -4 22 -10 24 -76 l2 -72 5 70 c6 63 8 70 31 76 17 5
7 7 -30 7 -30 -1 -45 -3 -32 -5z"/>
<path d="M11790 4899 c0 -56 3 -78 11 -73 7 4 9 23 6 48 -4 28 -1 46 9 57 16
18 9 49 -12 49 -11 0 -14 -18 -14 -81z"/>
<path d="M11914 4920 c-31 -66 -49 -75 -59 -30 -4 16 -11 33 -17 36 -6 4 -8
-2 -3 -16 12 -38 35 -90 40 -90 2 0 18 29 34 65 17 36 35 65 40 65 6 0 12 -28
14 -62 3 -57 4 -56 3 11 -1 45 -5 76 -12 78 -6 2 -24 -23 -40 -57z"/>
<path d="M8070 4884 c-146 -22 -267 -59 -400 -121 -93 -43 -220 -117 -270
-156 l-25 -20 25 8 c219 65 505 91 728 65 247 -29 374 -73 468 -162 108 -102
156 -233 154 -423 -1 -177 -40 -302 -120 -389 -37 -40 -231 -196 -243 -196 -3
0 -36 -19 -73 -42 -234 -142 -527 -220 -764 -203 -103 8 -223 30 -292 56 -28
10 -53 17 -55 15 -7 -7 84 -44 157 -65 41 -12 89 -26 105 -31 17 -4 85 -16
152 -25 157 -22 558 -16 698 10 385 72 626 262 714 564 29 99 32 123 36 281 6
300 -61 490 -233 657 -93 90 -222 142 -446 178 -112 18 -198 17 -316 -1z"/>
<path d="M27 1833 c-4 -3 -7 -98 -7 -210 0 -155 3 -203 13 -204 108 -4 253 4
272 17 55 36 59 107 9 161 -35 36 -35 38 -16 53 32 26 44 58 37 100 -7 43 -25
62 -74 79 -36 12 -223 16 -234 4z m237 -54 c34 -27 36 -79 4 -109 -18 -17 -35
-20 -110 -20 l-88 0 0 75 0 75 84 0 c69 0 88 -4 110 -21z m7 -190 c23 -16 29
-28 29 -58 0 -62 -24 -76 -134 -76 l-91 0 -3 64 c-2 35 -1 70 2 77 4 10 27 14
87 14 66 0 86 -4 110 -21z"/>
<path d="M914 1827 c-2 -7 -3 -102 -2 -212 l3 -198 135 1 c74 1 138 2 143 2 4
0 7 7 7 15 0 12 -22 15 -117 17 l-118 3 -3 78 -3 77 116 0 c108 0 115 1 115
20 0 19 -7 20 -115 20 l-116 0 3 73 3 72 118 3 c109 2 117 4 117 22 0 19 -7
20 -140 20 -105 0 -142 -3 -146 -13z"/>
<path d="M2370 1832 c0 -5 36 -60 80 -123 l80 -114 0 -93 c0 -84 2 -93 18 -90
14 3 18 18 23 90 6 93 5 90 134 273 41 59 43 67 13 63 -15 -2 -44 -34 -88 -97
-36 -52 -70 -96 -76 -98 -5 -1 -38 41 -74 95 -46 68 -72 98 -88 100 -12 2 -22
-1 -22 -6z"/>
<path d="M3365 1823 c-51 -26 -84 -64 -105 -120 -24 -64 -25 -84 -5 -149 19
-64 71 -117 135 -138 61 -20 83 -20 140 1 88 32 138 103 142 204 3 77 -31 143
-96 187 -43 28 -55 32 -115 31 -37 -1 -79 -8 -96 -16z m194 -51 c46 -34 66
-80 65 -152 0 -88 -28 -132 -103 -165 -143 -63 -281 100 -212 251 44 96 167
128 250 66z"/>
<path d="M4240 1683 c0 -145 2 -161 23 -198 12 -22 36 -46 52 -54 17 -8 38
-18 47 -23 52 -25 163 11 202 65 19 26 21 45 24 198 3 165 3 169 -17 169 -20
0 -21 -5 -22 -142 0 -83 -5 -158 -12 -178 -33 -95 -186 -107 -234 -18 -14 27
-18 62 -21 186 -4 142 -5 152 -23 152 -18 0 -19 -9 -19 -157z"/>
<path d="M5179 1833 c-2 -25 3 -418 5 -421 2 -1 10 0 19 4 13 5 17 24 19 87
l3 82 40 3 c22 1 45 -1 50 -5 6 -5 34 -45 64 -90 36 -55 60 -83 72 -83 28 0
24 14 -32 98 -46 71 -49 77 -30 80 12 2 37 19 57 38 35 32 36 36 32 89 -8 96
-55 125 -203 125 -52 0 -95 -3 -96 -7z m211 -46 c59 -30 63 -113 7 -148 -25
-15 -47 -19 -102 -17 l-70 3 -3 88 -3 87 73 0 c40 0 84 -6 98 -13z"/>
<path d="M6690 1631 c0 -181 2 -210 16 -215 9 -3 17 -6 19 -6 3 0 6 44 7 98
l3 97 115 5 c93 4 115 8 115 20 0 12 -19 15 -113 15 -129 0 -126 -3 -120 96
l3 54 118 3 c109 2 117 4 117 22 0 19 -7 20 -140 20 l-140 0 0 -209z"/>
<path d="M7520 1699 c0 -81 5 -159 12 -182 15 -48 61 -97 93 -97 13 0 27 -4
30 -10 9 -14 63 -12 109 4 95 33 119 95 114 296 -3 111 -5 125 -20 125 -16 0
-18 -15 -20 -150 -3 -167 -10 -188 -71 -225 -55 -34 -125 -22 -172 30 -18 20
-21 40 -25 184 -5 158 -5 161 -27 164 -23 3 -23 3 -23 -139z"/>
<path d="M8425 1830 c-13 -21 9 -30 76 -30 l69 0 0 -195 c0 -107 3 -195 8
-195 28 1 32 21 34 200 l3 185 68 3 c59 3 67 5 67 22 0 19 -8 20 -159 20 -96
0 -162 -4 -166 -10z"/>
<path d="M9310 1676 c0 -153 1 -165 23 -197 39 -59 150 -97 205 -71 9 5 30 15
46 23 59 28 71 66 75 247 l3 164 -23 -4 c-24 -3 -24 -4 -29 -163 -3 -88 -9
-167 -13 -176 -15 -31 -86 -62 -128 -56 -100 13 -119 55 -119 252 0 138 -1
145 -20 145 -19 0 -20 -7 -20 -164z"/>
<path d="M10244 1628 c1 -206 2 -213 21 -213 18 0 20 7 21 70 1 39 2 78 3 88
1 13 10 17 46 17 l45 0 57 -87 c43 -65 64 -88 81 -89 12 -1 22 3 22 7 0 5 -23
41 -51 80 -28 39 -48 77 -46 84 3 6 19 15 36 18 63 13 89 120 44 183 -29 40
-78 54 -190 54 l-89 0 0 -212z m225 146 c25 -20 31 -34 31 -64 0 -30 -6 -44
-31 -64 -27 -23 -40 -26 -104 -26 l-73 0 -4 78 c-3 42 -3 83 0 90 3 8 28 12
77 12 64 0 77 -3 104 -26z"/>
<path d="M11119 1836 c-2 -2 -3 -98 -1 -213 l3 -208 134 0 c122 0 135 2 135
18 0 15 -12 17 -115 17 l-115 0 0 80 0 80 115 0 c108 0 115 1 115 20 0 19 -7
20 -115 20 l-115 0 0 75 0 74 118 3 c96 2 117 6 117 18 0 12 -23 15 -136 18
-74 1 -137 1 -140 -2z"/>
</g>
</svg>
