<?xml version="1.0" standalone="yes"?>
<svg xmlns="http://www.w3.org/2000/svg" width="1262" height="236">
<path style="fill:#ffffff; stroke:none;" d="M0 0L0 236L1262 236L1262 0L0 0z"/>
<path style="fill:#aedf49; stroke:none;" d="M785 24L785 26C794.108 32.5476 805.959 45.6689 817 48.3503C822.896 49.7823 831.712 46.9996 838 47C852.716 47.0009 867.268 51.599 879 60.6798C890.755 69.779 900.089 81.9089 904.921 96C907.038 102.173 906.474 111.288 909.988 116.674C915.659 125.365 932.855 135.082 942 140C954.089 90.9288 925.664 37.3562 879 18.4529C847.798 5.81311 814.508 8.47697 785 24z"/>
<path style="fill:#a4e0f5; stroke:none;" d="M807 14L808 15L807 14M801 16L802 17L801 16M798 17L799 18L798 17M796 18L797 19L796 18M793 19L794 20L793 19M791 20L792 21L791 20M789 21L790 22L789 21M13 212L14 212L14 23L48 23L48 96L49 96L49 22L23 22L14.0278 23.6034L13 37L13 73L13 212M179 22L179 23L249 23L227 22L179 22M278 22L278 213L279 213L279 23L397 23L361 22L278 22M498 22L498 23L547 23C534.348 17.691 511.788 22 498 22M694 22L694 23L742 23L738 28L743 22L694 22M787 22L788 23L787 22M971 22L971 23C984.898 23 997.315 20.9067 1009 29C1001.13 17.9653 983.178 22 971 22M1155 22L1155 23L1190 23L1155 22z"/>
<path style="fill:#08b3fb; stroke:none;" d="M14 23L14 213L48 213L48 140C80.0365 153.341 110.784 174.315 141 191.424C152.955 198.193 165.923 208.055 179 212.301C185.52 214.418 194.199 213 201 213L248 213L248 212L147 155.576L79 118L184 59.1397L247 24L247 23L201 23L178 23.6381L136 46.6944L48 96L48 23L14 23z"/>
<path style="fill:#a4e0f5; stroke:none;" d="M177 23L178 24L177 23z"/>
<path style="fill:#08b3fb; stroke:none;" d="M279 23L279 213L313 213L313 135L357 135L376 136.028L396 154L435 192L457 211.972L472 213L505 213L475 182.91L424 133C444.622 130.391 468.142 126.489 483.91 111.711C508.961 88.2304 496.592 49.5045 468 36.3094C439.8 23.2956 407.412 23 377 23L279 23z"/>
<path style="fill:#a4e0f5; stroke:none;" d="M407 23L407 24L414 24L407 23z"/>
<path style="fill:#08b3fb; stroke:none;" d="M499 23C505.069 31.5449 514.556 38.5557 522 46C538.809 62.8087 555.815 79.5284 573 95.9606C581.925 104.495 596.379 113.814 601.972 125C604.634 130.324 603 139.171 603 145L603 192C603 197.149 601.298 205.998 603.603 210.682C605.05 213.622 609.296 212.994 612 213L638 213L638 151L639.028 125L665 98.9961L719 46L742 23C728.305 23 706.827 18.8741 694 23.6034C685.677 26.6719 678.312 37.9247 672 43.9606C655.487 59.7506 634.163 75.3142 621 94C604.329 77.3285 586.87 61.4423 570 44.9853C563.52 38.6645 555.615 26.7799 547 23.6034C534.173 18.8741 512.695 23 499 23z"/>
<path style="fill:#a4e0f5; stroke:none;" d="M785.667 23.3333L786.333 23.6667L785.667 23.3333z"/>
<path style="fill:#08b3fb; stroke:none;" d="M971 23L971 213L996 213L1004.97 211.397L1006 201L1006 175L1006 73L1101 160.09L1137 193.035L1159 212.062L1190 213L1190 23L1155 23L1155 162L1054 69.8302L1019 37.8302L1002 23.6026L971 23z"/>
<path style="fill:#a4e0f5; stroke:none;" d="M1213 23L1214 24L1213 23z"/>
<path style="fill:#08b3fb; stroke:none;" d="M1213 24L1213 25L1219 25L1219 41L1221 41C1221 34.7022 1219.07 26.2653 1227 25L1227 23L1213 24M1230 23L1229 41L1232 41L1232 27L1233 27L1238 41L1240 41L1246 27L1247 27L1247 41L1249 41L1248 23L1239 37C1237.16 31.5699 1235.76 25.1839 1230 23z"/>
<path style="fill:#a4e0f5; stroke:none;" d="M1232.67 23.3333L1233.33 23.6667L1232.67 23.3333M1245 23L1246 24L1245 23M1248 23L1249 24L1248 23M175 24L176 25L175 24M245 24L246 25L245 24M419 24L419 25L423 25L419 24M784 24L764 40L772 36C774.169 42.0771 792.659 55.0099 799 56L798 59L818 50L818 49L784 24M1229 24L1230 25L1229 24M1244 24L1245 25L1244 24M173 25L174 26L173 25M243 25L244 26L243 25M427 25L427 26L431 26L427 25M1213 25L1213 26L1218 26L1218 40L1219 40L1219 25L1213 25M1222 25L1222 26L1227 26L1222 25M1234 25L1235 26L1234 25M242 26L243 27L242 26M434.667 26.3333L435.333 26.6667L434.667 26.3333M1221 26L1221 41L1222 41L1221 26M1243 26L1244 27L1243 26M170 27L171 28L170 27M240 27L241 28L240 27M439 27L439 28L442 28L439 27M1232 27L1233 28L1232 27M1235 27L1236 28L1235 27M1246 27L1246 41L1247 41L1246 27M168 28L169 29L168 28M238 28L239 29L238 28M444.667 28.3333L445.333 28.6667L444.667 28.3333M553 28L554 29L553 28M687 28L688 29L687 28M166 29L167 30L166 29M236 29L237 30L236 29M448.667 29.3333L449.333 29.6667L448.667 29.3333M554 29L555 30L554 29M686 29L687 30L686 29M1233.33 29.6667L1233.67 30.3333L1233.33 29.6667M1242 29L1243 30L1242 29M164 30L165 31L164 30M452 30L453 31L452 30M506 30L507 31L506 30M555 30L556 31L555 30M685 30L686 31L685 30M1236 30L1237 31L1236 30M1244.33 30.6667L1244.67 31.3333L1244.33 30.6667M163 31L164 32L163 31M233 31L234 32L233 31M455 31L456 32L455 31M507 31L508 32L507 31M684 31L685 32L684 31M1241 31L1242 32L1241 31M161 32L162 33L161 32M231 32L232 33L231 32M458 32L459 33L458 32M508 32L509 33L508 32M683 32L684 33L683 32M1013 32L1014 33L1013 32M1234 32L1235 33L1234 32M1237 32L1238 33L1237 32M159 33L160 34L159 33M229 33L230 34L229 33M461 33L462 34L461 33M509 33L510 34L509 33M558 33L559 34L558 33M682 33L683 34L682 33M1014 33L1015 34L1014 33M1240.33 33.6667L1240.67 34.3333L1240.33 33.6667M1243 33L1244 34L1243 33M157 34L158 35L157 34M227 34L228 35L227 34M463 34L464 35L463 34M510 34L511 35L510 34M681 34L682 35L681 34M1015 34L1016 35L1015 34M466 35L467 36L466 35M511 35L512 36L511 35M560 35L561 36L560 35M680 35L681 36L680 35M1016 35L1017 36L1016 35M1235 35L1236 36L1235 35M1238 35L1239 36L1238 35M1242.33 35.6667L1242.67 36.3333L1242.33 35.6667M154 36L155 37L154 36M224 36L225 37L224 36M468 36L469 37L468 36M512 36L513 37L512 36M561 36L562 37L561 36M679 36L680 37L679 36z"/>
<path style="fill:#08b3fb; stroke:none;" d="M730 113L731 113L731 109L737 111L736 113L756 125L763 133L764 133L764 131L765 131L765 135L766 135L766 133L767 133L769 136C763.09 114.969 767.673 92.4696 780.9 75C786.059 68.1861 795.05 63.3298 799 56L792 51.3333L772 36C763.775 37.2843 758.209 44.9066 753.261 51C738.955 68.6158 731.77 90.5791 730 113z"/>
<path style="fill:#a4e0f5; stroke:none;" d="M1017 36L1018 37L1017 36M1239 36L1240 37L1239 36M152 37L153 38L152 37M222 37L223 38L222 37M470 37L471 38L470 37M513 37L514 38L513 37M562 37L563 38L562 37M678 37L679 38L678 37M1018 37L1019 38L1018 37M1236 37L1237 38L1236 37M150 38L151 39L150 38M220 38L221 39L220 38M472 38L473 39L472 38M514 38L515 39L514 38M563 38L564 39L563 38M677 38L678 39L677 38M726 38L727 39L726 38M1019 38L1020 39L1019 38M1241 38L1242 39L1241 38M148 39L149 40L148 39M218 39L219 40L218 39M515 39L516 40L515 39M564 39L565 40L564 39M676 39L677 40L676 39M725 39L726 40L725 39M1020 39L1021 40L1020 39M217 40L218 41L217 40M475 40L476 41L475 40M516 40L517 41L516 40M565 40L566 41L565 40M675 40L676 41L675 40M724 40L725 41L724 40M762 40L763 41L762 40M1237 40L1238 41L1237 40M1240 40L1241 41L1240 40M145 41L146 42L145 41M215 41L216 42L215 41M517 41L518 42L517 41M566 41L567 42L566 41M674 41L675 42L674 41M723 41L724 42L723 41M761 41L762 42L761 41M143 42L144 43L143 42M213 42L214 43L213 42M478 42L479 43L478 42M518 42L519 43L518 42M567 42L568 43L567 42M673 42L674 43L673 42M722 42L723 43L722 42M760 42L761 43L760 42M141 43L142 44L141 43M211 43L212 44L211 43M519 43L520 44L519 43M568 43L569 44L568 43M672 43L673 44L672 43M721 43L722 44L721 43M1025 43L1026 44L1025 43M481 44L482 45L481 44M520 44L521 45L520 44M569 44L570 45L569 44M671 44L672 45L671 44M720 44L721 45L720 44M138 45L139 46L138 45M208 45L209 46L208 45M482 45L483 46L482 45M521 45L522 46L521 45M570 45L571 46L570 45M670 45L671 46L670 45M719 45L720 46L719 45M1027 45L1028 46L1027 45M136 46L137 47L136 46M206 46L207 47L206 46M483 46L484 47L483 46M522 46L523 47L522 46M571 46L572 47L571 46M669 46L670 47L669 46M718 46L719 47L718 46M1028 46L1029 47L1028 46M134 47L135 48L134 47M204 47L205 48L204 47M484 47L485 48L484 47M523 47L524 48L523 47M572 47L573 48L572 47M668 47L669 48L668 47M717 47L718 48L717 47M756 47L757 48L756 47M825 47L825 48L828 48L825 47z"/>
<path style="fill:#ffffff; stroke:none;" d="M828 47.4282C817.741 48.8979 807.754 52.476 799 58.0903C736.517 98.1625 774.29 197.159 847 187.711C856.311 186.501 864.73 183.024 873 178.742C879.658 175.294 884.822 170.401 889.96 165C934.621 118.057 891.011 38.4012 828 47.4282z"/>
<path style="fill:#a4e0f5; stroke:none;" d="M847.667 47.3333L848.333 47.6667L847.667 47.3333M1029 47L1030 48L1029 47M132 48L133 49L132 48M202 48L203 49L202 48M485 48L486 49L485 48M524 48L525 49L524 48M573 48L574 49L573 48M716 48L717 49L716 48M755 48L756 49L755 48M820.667 48.3333L821.333 48.6667L820.667 48.3333M853 48L854 49L853 48M1030 48L1031 49L1030 48M201 49L202 50L201 49M486 49L487 50L486 49M525 49L526 50L525 49M574 49L575 50L574 49M715 49L716 50L715 49M754 49L755 50L754 49M1031 49L1032 50L1031 49M129 50L130 51L129 50M199 50L200 51L199 50M487 50L488 51L487 50M526 50L527 51L526 50M714 50L715 51L714 50M753 50L754 51L753 50M1032 50L1033 51L1032 50M127 51L128 52L127 51M197 51L198 52L197 51M527 51L528 52L527 51M713 51L714 52L713 51M125 52L126 53L125 52M195 52L196 53L195 52M528 52L529 53L528 52M712 52L713 53L712 52M865 52L866 53L865 52M123 53L124 54L123 53M193 53L194 54L193 53M529 53L530 54L529 53M711 53L712 54L711 53M751 53L752 54L751 53M122 54L123 55L122 54M192 54L193 55L192 54M490 54L491 55L490 54M530 54L531 55L530 54M710 54L711 55L710 54M750 54L751 55L750 54M1037 54L1038 55L1037 54M120 55L121 56L120 55M190 55L191 56L190 55M531 55L532 56L531 55M659 55L660 56L659 55M709 55L710 56L709 55M871 55L872 56L871 55M118 56L119 57L118 56M188 56L189 57L188 56M313 56L313 57L403 57L375 56L313 56M1039 56L1040 57L1039 56M116 57L117 58L116 57M186 57L187 58L186 57z"/>
<path style="fill:#ffffff; stroke:none;" d="M313 57L313 100C350.713 100 390.573 103.636 428 99.1551C439.07 97.8297 460.372 95.2634 461.89 81C463.666 64.3288 441.215 60.8474 429 59.1304C391.104 53.8036 351.234 57 313 57z"/>
<path style="fill:#a4e0f5; stroke:none;" d="M413 57L413 58L419 58L413 57M492 57L493 58L492 57M583 57L584 58L583 57M657 57L658 58L657 57M748 57L749 58L748 57M1040 57L1041 58L1040 57M424 58L424 59L428 59L424 58M584 58L585 59L584 58M706 58L707 59L706 58M747 58L748 59L747 58M876 58L877 59L876 58M1041 58L1042 59L1041 58M113 59L114 60L113 59M183 59L184 60L183 59M431 59L431 60L434 60L431 59M493 59L494 60L493 59M585 59L586 60L585 59M796 59L797 60L796 59M1042 59L1043 60L1042 59M111 60L112 61L111 60M181 60L182 61L181 60M437.667 60.3333L438.333 60.6667L437.667 60.3333M586 60L587 61L586 60M746 60L747 61L746 60M795 60L796 61L795 60M1043 60L1044 61L1043 60M109 61L110 62L109 61M179 61L180 62L179 61M441.667 61.3333L442.333 61.6667L441.667 61.3333M587 61L588 62L587 61M794 61L795 62L794 61M107 62L108 63L107 62M177 62L178 63L177 62M445 62L446 63L445 62M494 62L495 63L494 62M588 62L589 63L588 62M792 62L793 63L792 62M448 63L449 64L448 63M589 63L590 64L589 63M651 63L652 64L651 63M744 63L745 64L744 63M791 63L792 64L791 63M104 64L105 65L104 64M174 64L175 65L174 64M450 64L451 65L450 64M495.333 64.6667L495.667 65.3333L495.333 64.6667M590 64L591 65L590 64M650 64L651 65L650 64M790 64L791 65L790 64M102 65L103 66L102 65M172 65L173 66L172 65M452 65L453 66L452 65M542 65L543 66L542 65M591 65L592 66L591 65M649 65L650 66L649 65M743 65L744 66L743 65M789 65L790 66L789 65M1049 65L1050 66L1049 65M100 66L101 67L100 66M170 66L171 67L170 66M454 66L455 67L454 66M543 66L544 67L543 66M592 66L593 67L592 66M648 66L649 67L648 66M788 66L789 67L788 66M1050 66L1051 67L1050 66M98 67L99 68L98 67M168 67L169 68L168 67M544 67L545 68L544 67M593 67L594 68L593 67M647 67L648 68L647 67M742 67L743 68L742 67M787 67L788 68L787 67M1051 67L1052 68L1051 67M97 68L98 69L97 68M167 68L168 69L167 68M457 68L458 69L457 68M496.333 68.6667L496.667 69.3333L496.333 68.6667M545 68L546 69L545 68M594 68L595 69L594 68M646 68L647 69L646 68M786 68L787 69L786 68M1052 68L1053 69L1052 68M95 69L96 70L95 69M165 69L166 70L165 69M458 69L459 70L458 69M546 69L547 70L546 69M595 69L596 70L595 69M645 69L646 70L645 69M741 69L742 70L741 69M785 69L786 70L785 69M1053 69L1054 70L1053 69M93 70L94 71L93 70M163 70L164 71L163 70M459 70L460 71L459 70M547 70L548 71L547 70M596 70L597 71L596 70M644 70L645 71L644 70M784 70L785 71L784 70M1054 70L1055 71L1054 70M91 71L92 72L91 71M161 71L162 72L161 71M548 71L549 72L548 71M597 71L598 72L597 71M643 71L644 72L643 71M692 71L693 72L692 71M740 71L741 72L740 71M783 71L784 72L783 71M1055 71L1056 72L1055 71M549 72L550 73L549 72M598 72L599 73L598 72M642 72L643 73L642 72M691 72L692 73L691 72M782 72L783 73L782 72M88 73L89 74L88 73M158 73L159 74L158 73M461 73L462 74L461 73M497 73L497 84L498 84L497 73M550 73L551 74L550 73M599 73L600 74L599 73M641 73L642 74L641 73M690 73L691 74L690 73M739 73L740 74L739 73M1006 73L1007 74L1006 73M86 74L87 75L86 74M156 74L157 75L156 74M551 74L552 75L551 74M600 74L601 75L600 74M640 74L641 75L640 74M689 74L690 75L689 74M781 74L782 75L781 74M1007 74L1008 75L1007 74M84 75L85 76L84 75M154 75L155 76L154 75M552 75L553 76L552 75M601 75L602 76L601 75M639 75L640 76L639 75M688 75L689 76L688 75M738 75L739 76L738 75M780 75L781 76L780 75M1008 75L1009 76L1008 75M1060 75L1061 76L1060 75M82 76L83 77L82 76M152 76L153 77L152 76M462 76L462 82L463 82L462 76M553 76L554 77L553 76M602 76L603 77L602 76M638 76L639 77L638 76M687 76L688 77L687 76M779 76L780 77L779 76M1009 76L1010 77L1009 76M1061 76L1062 77L1061 76M81 77L82 78L81 77M151 77L152 78L151 77M554 77L555 78L554 77M603 77L604 78L603 77M637 77L638 78L637 77M686 77L687 78L686 77M1010 77L1011 78L1010 77M1062 77L1063 78L1062 77M79 78L80 79L79 78M149 78L150 79L149 78M555 78L556 79L555 78M604 78L605 79L604 78M685 78L686 79L685 78M737 78L738 79L737 78M778 78L779 79L778 78M896 78L897 79L896 78M1011 78L1012 79L1011 78M1063 78L1064 79L1063 78M77 79L78 80L77 79M147 79L148 80L147 79M556 79L557 80L556 79M684 79L685 80L684 79M777 79L778 80L777 79M1064 79L1065 80L1064 79M75 80L76 81L75 80M145 80L146 81L145 80M557 80L558 81L557 80M683 80L684 81L683 80M736.333 80.6667L736.667 81.3333L736.333 80.6667M1013 80L1014 81L1013 80M1065 80L1066 81L1065 80M143 81L144 82L143 81M558 81L559 82L558 81M682 81L683 82L682 81M776 81L777 82L776 81M1066 81L1067 82L1066 81M72 82L73 83L72 82M142 82L143 83L142 82M559 82L560 83L559 82M681 82L682 83L681 82M1067 82L1068 83L1067 82M70 83L71 84L70 83M140 83L141 84L140 83M560 83L561 84L560 83M680 83L681 84L680 83M735 83L736 84L735 83M775 83L776 84L775 83M899 83L900 84L899 83M68 84L69 85L68 84M138 84L139 85L138 84M461 84L462 85L461 84M561 84L562 85L561 84M679 84L680 85L679 84M1018 84L1019 85L1018 84M66 85L67 86L66 85M136 85L137 86L136 85M562 85L563 86L562 85M678 85L679 86L678 85M774 85L775 86L774 85M1019 85L1020 86L1019 85M1071 85L1072 86L1071 85M65 86L66 87L65 86M563 86L564 87L563 86M613 86L614 87L613 86M627 86L628 87L627 86M677 86L678 87L677 86M734.333 86.6667L734.667 87.3333L734.333 86.6667M1020 86L1021 87L1020 86M1072 86L1073 87L1072 86M63 87L64 88L63 87M133 87L134 88L133 87M459 87L460 88L459 87M564 87L565 88L564 87M614 87L615 88L614 87M626 87L627 88L626 87M676 87L677 88L676 87M773 87L774 88L773 87M1021 87L1022 88L1021 87M1073 87L1074 88L1073 87M61 88L62 89L61 88M131 88L132 89L131 88M458 88L459 89L458 88M496.333 88.6667L496.667 89.3333L496.333 88.6667M565 88L566 89L565 88M625 88L626 89L625 88M675 88L676 89L675 88M1022 88L1023 89L1022 88M1074 88L1075 89L1074 88M59 89L60 90L59 89M129 89L130 90L129 89M457 89L458 90L457 89M566 89L567 90L566 89M616 89L617 90L616 89M624 89L625 90L624 89M674 89L675 90L674 89M733.333 89.6667L733.667 90.3333L733.333 89.6667M772 89L773 90L772 89M902 89L903 90L902 89M1075 89L1076 90L1075 89M127 90L128 91L127 90M456 90L457 91L456 90M617 90L618 91L617 90M623 90L624 91L623 90M673 90L674 91L673 90M1024 90L1025 91L1024 90M1076 90L1077 91L1076 90M56 91L57 92L56 91M126 91L127 92L126 91M622 91L623 92L622 91M672 91L673 92L672 91M771 91L772 92L771 91M1025 91L1026 92L1025 91M1077 91L1078 92L1077 91M54 92L55 93L54 92M124 92L125 93L124 92M453 92L454 93L453 92M495.333 92.6667L495.667 93.3333L495.333 92.6667M619 92L620 93L619 92M671 92L672 93L671 92M1078 92L1079 93L1078 92M52 93L53 94L52 93M122 93L123 94L122 93M451 93L452 94L451 93M620 93L621 94L620 93M670 93L671 94L670 93M732 93L732 96L733 96L732 93M50 94L51 95L50 94M120 94L121 95L120 94M449 94L450 95L449 94M669 94L670 95L669 94M770 94L771 95L770 94M904 94L905 95L904 94M1029 94L1030 95L1029 94M118 95L119 96L118 95M446 95L447 96L446 95M494 95L495 96L494 95M668 95L669 96L668 95M1030 95L1031 96L1030 95M117 96L118 97L117 96M442.667 96.3333L443.333 96.6667L442.667 96.3333M667 96L668 97L667 96M769.333 96.6667L769.667 97.3333L769.333 96.6667M1031 96L1032 97L1031 96M115 97L116 98L115 97M438.667 97.3333L439.333 97.6667L438.667 97.3333M905 97L906 98L905 97M1032 97L1033 98L1032 97M1084 97L1085 98L1084 97M113 98L114 99L113 98M433 98L433 99L436 99L433 98M493 98L494 99L493 98M731 98L731 101L732 101L731 98M1033 98L1034 99L1033 98M1085 98L1086 99L1085 98M111 99L112 100L111 99M425 99L425 100L429 100L425 99M1034 99L1035 100L1034 99M1086 99L1087 100L1086 99M313 100L313 101L418 101L386 100L313 100M492 100L493 101L492 100M578 100L579 101L578 100M768.333 100.667L768.667 101.333L768.333 100.667M1035 100L1036 101L1035 100M1087 100L1088 101L1087 100M108 101L109 102L108 101M579 101L580 102L579 101M906 101L907 102L906 101M1036 101L1037 102L1036 101M1088 101L1089 102L1088 101M106 102L107 103L106 102M491 102L492 103L491 102M580 102L581 103L580 102M1089 102L1090 103L1089 102M104 103L105 104L104 103M490 103L491 104L490 103M581 103L582 104L581 103M1090 103L1091 104L1090 103M102 104L103 105L102 104M582 104L583 105L582 104M767 104L767 108L768 108L767 104M489 105L490 106L489 105M583 105L584 106L583 105M657 105L658 106L657 105M730 105L730 109L731 109L730 105M907 105L907 108L908 108L907 105M1041 105L1042 106L1041 105M99 106L100 107L99 106M488 106L489 107L488 106M584 106L585 107L584 106M656 106L657 107L656 106M1042 106L1043 107L1042 106M97 107L98 108L97 107M487 107L488 108L487 107M585 107L586 108L585 107M655 107L656 108L655 107M1043 107L1044 108L1043 107M95 108L96 109L95 108M586 108L587 109L586 108M654 108L655 109L654 108M1044 108L1045 109L1044 108M1096 108L1097 109L1096 108M93 109L94 110L93 109M587 109L588 110L587 109M653 109L654 110L653 109z"/>
<path style="fill:#2b6dfa; stroke:none;" d="M731 109C724.1 163.598 766.131 213.958 819 223.385C839.436 227.029 858.602 223.552 878 217L878 214L874 211L870 208L866 208L866 205C863.351 205.53 862.393 205.428 863 203L858 202L856 200L855 197C852.351 197.53 851.393 197.428 852 195C847.909 194.251 845.819 190.56 841.911 189.433C833.267 186.94 823.845 187.954 815 184.921C790.462 176.507 775.888 156.293 767 133L766 133L766 135L765 135L765 131L764 131L764 133L763 133L762 130L756 125L736 113L737 111L731 109z"/>
<path style="fill:#a4e0f5; stroke:none;" d="M1045 109L1046 110L1045 109M1097 109L1098 110L1097 109M92 110L93 111L92 110M588 110L589 111L588 110M652 110L653 111L652 110M944.333 110.667L944.667 111.333L944.333 110.667M1046 110L1047 111L1046 110M1098 110L1099 111L1098 110M90 111L91 112L90 111M589 111L590 112L589 111M651 111L652 112L651 111M1099 111L1100 112L1099 111M88 112L89 113L88 112M590 112L591 113L590 112M650 112L651 113L650 112M766 112L766 123L767 123L766 112M908 112L907.117 135.699L936 159L937 159C938.645 154.13 943.093 146.365 941.371 141.174C939.957 136.91 934.409 134.276 930.999 131.856C922.891 126.102 912.731 120.876 908 112M1048 112L1049 113L1048 112M1100 112L1101 113L1100 112M86 113L87 114L86 113M481 113L482 114L481 113M591 113L592 114L591 113M649 113L650 114L649 113M1101 113L1102 114L1101 113M480 114L481 115L480 114M592 114L593 115L592 114M648 114L649 115L648 114M1102 114L1103 115L1102 114M83 115L84 116L83 115M479 115L480 116L479 115M593 115L594 116L593 115M647 115L648 116L647 115M1052 115L1053 116L1052 115M81 116L82 117L81 116M594 116L595 117L594 116M646 116L647 117L646 116M1053 116L1054 117L1053 116M79 117L80 118L79 117M476 117L477 118L476 117M595 117L596 118L595 117M645 117L646 118L645 117M1054 117L1055 118L1054 117M1106 117L1107 118L1106 117M80 118L81 119L80 118M474 118L475 119L474 118M596 118L597 119L596 118M644 118L645 119L644 118M1055 118L1056 119L1055 118M82 119L83 120L82 119M597 119L598 120L597 119M643 119L644 120L643 119z"/>
<path style="fill:#2b6dfa; stroke:none;" d="M747 119L748 120L747 119z"/>
<path style="fill:#a4e0f5; stroke:none;" d="M1056 119L1057 120L1056 119M1108 119L1109 120L1108 119M84 120L85 121L84 120M471 120L472 121L471 120M598 120L599 121L598 120M642 120L643 121L642 120M1057 120L1058 121L1057 120M1109 120L1110 121L1109 120M86 121L87 122L86 121M469 121L470 122L469 121M599 121L600 122L599 121M641 121L642 122L641 121M1058 121L1059 122L1058 121M1110 121L1111 122L1110 121M87 122L88 123L87 122M467 122L468 123L467 122M600 122L601 123L600 122z"/>
<path style="fill:#08b3fb; stroke:none;" d="M730 122L731 123L730 122z"/>
<path style="fill:#a4e0f5; stroke:none;" d="M1059 122L1060 123L1059 122M1111 122L1112 123L1111 122M89 123L90 124L89 123M464 123L465 124L464 123M601 123L602 124L601 123M639 123L640 124L639 123M944 123L944 127L945 127L944 123M1112 123L1113 124L1112 123M91 124L92 125L91 124M462 124L463 125L462 124M638 124L639 125L638 124M1113 124L1114 125L1113 124M93 125L94 126L93 125M459 125L460 126L459 125M95 126L96 127L95 126M456.667 126.333L457.333 126.667L456.667 126.333M730 126L730 131L731 131L730 126M1064 126L1065 127L1064 126M96 127L97 128L96 127M453.667 127.333L454.333 127.667L453.667 127.333z"/>
<path style="fill:#2b6dfa; stroke:none;" d="M758 127L762 130L762 129L758 127z"/>
<path style="fill:#a4e0f5; stroke:none;" d="M767 127L767 131L768 131L767 127M1065 127L1066 128L1065 127M98 128L99 129L98 128M449.667 128.333L450.333 128.667L449.667 128.333M1066 128L1067 129L1066 128M1118 128L1119 129L1118 128M100 129L101 130L100 129M445.667 129.333L446.333 129.667L445.667 129.333M1067 129L1068 130L1067 129M102 130L103 131L102 130M440.667 130.333L441.333 130.667L440.667 130.333M1068 130L1069 131L1068 130M1120 130L1121 131L1120 130M434 131L434 132L437 132L434 131M1069 131L1070 132L1069 131M1121 131L1122 132L1121 131M105 132L106 133L105 132M427 132L427 133L430 133L427 132M943 132L943 135L944 135L943 132M1070 132L1071 133L1070 132M1122 132L1123 133L1122 132M107 133L108 134L107 133M424 133L425 134L424 133M768.333 133.667L768.667 134.333L768.333 133.667M1123 133L1124 134L1123 133M109 134L110 135L109 134M425 134L426 135L425 134M731 134L731 137L732 137L731 134M1124 134L1125 135L1124 134M111 135L112 136L111 135M426 135L427 136L426 135z"/>
<path style="fill:#08b3fb; stroke:none;" d="M907 135L908 136L907 135z"/>
<path style="fill:#a4e0f5; stroke:none;" d="M1125 135L1126 136L1125 135M112 136L113 137L112 136z"/>
<path style="fill:#08b3fb; stroke:none;" d="M906 136C899.506 163.404 871.422 187.413 843 188C844.905 191.963 847.566 194.592 852 195C851.972 197.437 852.556 197.303 855 197L856 200L858 202L863 203C862.972 205.437 863.556 205.303 866 205L867 206L866 208L870 208L874 211L878 214L878 217C898.093 208.634 914.591 195.107 926.667 177C929.687 172.471 936.581 163.948 935.187 158.04C933.248 149.827 913.181 139.556 906 136M909 136L910 137L909 136z"/>
<path style="fill:#a4e0f5; stroke:none;" d="M1075 136L1076 137L1075 136M114 137L115 138L114 137M428 137L429 138L428 137M769.333 137.667L769.667 138.333L769.333 137.667M905.333 137.667L905.667 138.333L905.333 137.667M1076 137L1077 138L1076 137M116 138L117 139L116 138M429 138L430 139L429 138M942.333 138.667L942.667 139.333L942.333 138.667M1077 138L1078 139L1077 138M118 139L119 140L118 139M430 139L431 140L430 139M1078 139L1079 140L1078 139M48 140L48 213L49 213C49 190.116 44.7018 162.254 50 140L48 140M431 140L432 141L431 140M732.333 140.667L732.667 141.333L732.333 140.667M770.333 140.667L770.667 141.333L770.333 140.667M904.333 140.667L904.667 141.333L904.333 140.667M1079 140L1080 141L1079 140M51 141L52 142L51 141M121 141L122 142L121 141M432 141L433 142L432 141M1080 141L1081 142L1080 141M1132 141L1133 142L1132 141M53 142L54 143L53 142M123 142L124 143L123 142M433 142L434 143L433 142M1133 142L1134 143L1133 142M55 143L56 144L55 143M125 143L126 144L125 143M434 143L435 144L434 143M771 143L772 144L771 143M903 143L904 144L903 143M1082 143L1083 144L1082 143M1134 143L1135 144L1134 143M57 144L58 145L57 144M127 144L128 145L127 144M386 144L387 145L386 144M435 144L436 145L435 144M733.333 144.667L733.667 145.333L733.333 144.667z"/>
<path style="fill:#08b3fb; stroke:none;" d="M771 144L772 145L771 144z"/>
<path style="fill:#a4e0f5; stroke:none;" d="M1135 144L1136 145L1135 144M58 145L59 146L58 145M387 145L388 146L387 145M436 145L437 146L436 145M902.333 145.667L902.667 146.333L902.333 145.667M1136 145L1137 146L1136 145M60 146L61 147L60 146M130 146L131 147L130 146M388 146L389 147L388 146M437 146L438 147L437 146M772 146L773 147L772 146M1137 146L1138 147L1137 146M62 147L63 148L62 147M132 147L133 148L132 147M389 147L390 148L389 147M438 147L439 148L438 147M901.333 147.667L901.667 148.333L901.333 147.667M1087 147L1088 148L1087 147M64 148L65 149L64 148M134 148L135 149L134 148M390 148L391 149L390 148M439 148L440 149L439 148M734 148L735 149L734 148M773 148L774 149L773 148M1088 148L1089 149L1088 148M136 149L137 150L136 149M391 149L392 150L391 149M440 149L441 150L440 149M1089 149L1090 150L1089 149M1141 149L1142 150L1141 149M67 150L68 151L67 150M392 150L393 151L392 150M441 150L442 151L441 150M774 150L775 151L774 150M900 150L901 151L900 150M1090 150L1091 151L1090 150M1142 150L1143 151L1142 150M69 151L70 152L69 151M139 151L140 152L139 151M393 151L394 152L393 151M442 151L443 152L442 151M735 151L736 152L735 151M899 151L900 152L899 151M1091 151L1092 152L1091 151M1143 151L1144 152L1143 151M71 152L72 153L71 152M141 152L142 153L141 152M394 152L395 153L394 152M443 152L444 153L443 152z"/>
<path style="fill:#08b3fb; stroke:none;" d="M775 152L776 153L775 152z"/>
<path style="fill:#a4e0f5; stroke:none;" d="M1092 152L1093 153L1092 152M1144 152L1145 153L1144 152M73 153L74 154L73 153M143 153L144 154L143 153M395 153L396 154L395 153M776 153L777 154L776 153M898 153L899 154L898 153M1093 153L1094 154L1093 153M1145 153L1146 154L1145 153M145 154L146 155L145 154M396 154L397 155L396 154M736 154L737 155L736 154M1146 154L1147 155L1146 154M76 155L77 156L76 155M146 155L147 156L146 155M397 155L398 156L397 155M777 155L778 156L777 155M897 155L898 156L897 155M1147 155L1148 156L1147 155M78 156L79 157L78 156M148 156L149 157L148 156M398 156L399 157L398 156M896 156L897 157L896 156M1148 156L1149 157L1148 156M80 157L81 158L80 157M150 157L151 158L150 157M399 157L400 158L399 157M737 157L738 158L737 157M1098 157L1099 158L1098 157M1149 157L1150 158L1149 157M82 158L83 159L82 158M152 158L153 159L152 158M400 158L401 159L400 158M779 158L780 159L779 158M895 158L896 159L895 158M1099 158L1100 159L1099 158M83 159L84 160L83 159M738 159L739 160L738 159M894 159L895 160L894 159M1100 159L1101 160L1100 159M85 160L86 161L85 160M155 160L156 161L155 160M402 160L403 161L402 160M935.333 160.667L935.667 161.333L935.333 160.667M1101 160L1102 161L1101 160M1153 160L1154 161L1153 160M87 161L88 162L87 161M157 161L158 162L157 161M403 161L404 162L403 161M453 161L454 162L453 161M1102 161L1103 162L1102 161M89 162L90 163L89 162M159 162L160 163L159 162M404 162L405 163L404 162M454 162L455 163L454 162M782 162L783 163L782 162M934.333 162.667L934.667 163.333L934.333 162.667M1103 162L1104 163L1103 162M161 163L162 164L161 163M405 163L406 164L405 163M455 163L456 164L455 163M783 163L784 164L783 163M891 163L892 164L891 163M1104 163L1105 164L1104 163M92 164L93 165L92 164M406 164L407 165L406 164M456 164L457 165L456 164M784 164L785 165L784 164M890 164L891 165L890 164M1105 164L1106 165L1105 164M94 165L95 166L94 165M164 165L165 166L164 165M407 165L408 166L407 165M457 165L458 166L457 165M785 165L786 166L785 165M889 165L890 166L889 165M933 165L934 166L933 165M96 166L97 167L96 166M166 166L167 167L166 166M458 166L459 167L458 166M786 166L787 167L786 166M888 166L889 167L888 166M98 167L99 168L98 167M168 167L169 168L168 167M459 167L460 168L459 167M787 167L788 168L787 167M887 167L888 168L887 167M932 167L933 168L932 167M170 168L171 169L170 168M788 168L789 169L788 168M886 168L887 169L886 168M1110 168L1111 169L1110 168M101 169L102 170L101 169M171 169L172 170L171 169M461 169L462 170L461 169M743 169L744 170L743 169M885 169L886 170L885 169M931 169L932 170L931 169M1111 169L1112 170L1111 169M103 170L104 171L103 170M173 170L174 171L173 170M462 170L463 171L462 170M790 170L791 171L790 170M884 170L885 171L884 170M1112 170L1113 171L1112 170M105 171L106 172L105 171M175 171L176 172L175 171M463 171L464 172L463 171M744 171L745 172L744 171M791 171L792 172L791 171M883 171L884 172L883 171M930 171L931 172L930 171M1113 171L1114 172L1113 171M107 172L108 173L107 172M177 172L178 173L177 172M464 172L465 173L464 172M792 172L793 173L792 172M929 172L930 173L929 172M1114 172L1115 173L1114 172M179 173L180 174L179 173M465 173L466 174L465 173M745 173L746 174L745 173M110 174L111 175L110 174M180 174L181 175L180 174M417 174L418 175L417 174M466 174L467 175L466 174M746 174L747 175L746 174M928 174L929 175L928 174M1116 174L1117 175L1116 174M112 175L113 176L112 175M182 175L183 176L182 175M418 175L419 176L418 175M467 175L468 176L467 175M796 175L797 176L796 175M878 175L879 176L878 175M927 175L928 176L927 175M114 176L115 177L114 176M184 176L185 177L184 176M419 176L420 177L419 176M468 176L469 177L468 176M747 176L748 177L747 176M116 177L117 178L116 177M186 177L187 178L186 177M420 177L421 178L420 177M469 177L470 178L469 177M799 177L800 178L799 177M875 177L876 178L875 177M926 177L927 178L926 177M117 178L118 179L117 178M421 178L422 179L421 178M470 178L471 179L470 178M801 178L802 179L801 178M873 178L874 179L873 178M925 178L926 179L925 178M1121 178L1122 179L1121 178M119 179L120 180L119 179M189 179L190 180L189 179M422 179L423 180L422 179M471 179L472 180L471 179M749 179L750 180L749 179M802 179L803 180L802 179M871 179L872 180L871 179M1122 179L1123 180L1122 179M121 180L122 181L121 180M191 180L192 181L191 180M423 180L424 181L423 180M472 180L473 181L472 180M750 180L751 181L750 180M804 180L805 181L804 180M869 180L870 181L869 180M924 180L925 181L924 180M1123 180L1124 181L1123 180M123 181L124 182L123 181M193 181L194 182L193 181M424 181L425 182L424 181M473 181L474 182L473 181M806 181L807 182L806 181M867 181L868 182L867 181M923 181L924 182L923 181M1124 181L1125 182L1124 181M195 182L196 183L195 182M425 182L426 183L425 182M474 182L475 183L474 182M808 182L809 183L808 182M865 182L866 183L865 182M1125 182L1126 183L1125 182M126 183L127 184L126 183M196 183L197 184L196 183M426 183L427 184L426 183M475 183L476 184L475 183M752 183L753 184L752 183M811 183L812 184L811 183M863 183L864 184L863 183M1126 183L1127 184L1126 183M128 184L129 185L128 184M198 184L199 185L198 184M427 184L428 185L427 184M476 184L477 185L476 184M753 184L754 185L753 184M813.667 184.333L814.333 184.667L813.667 184.333M860.667 184.333L861.333 184.667L860.667 184.333M921 184L922 185L921 184M1127 184L1128 185L1127 184M130 185L131 186L130 185M200 185L201 186L200 185M428 185L429 186L428 185M477 185L478 186L477 185M816.667 185.333L817.333 185.667L816.667 185.333M857.667 185.333L858.333 185.667L857.667 185.333M920 185L921 186L920 185M1128 185L1129 186L1128 185M132 186L133 187L132 186M202 186L203 187L202 186M429 186L430 187L429 186M820.667 186.333L821.333 186.667L820.667 186.333M853.667 186.333L854.333 186.667L853.667 186.333M919 186L920 187L919 186M133 187L134 188L133 187M204 187L205 188L204 187M430 187L431 188L430 187M824 187L824 188L827 188L824 187M848.667 187.333L849.333 187.667L848.667 187.333M135 188L136 189L135 188M205 188L206 189L205 188M431 188L432 189L431 188M756 188L757 189L756 188z"/>
<path style="fill:#08b3fb; stroke:none;" d="M830.667 188.333L831.333 188.667L830.667 188.333z"/>
<path style="fill:#a4e0f5; stroke:none;" d="M832 188L832 189L843 189L832 188M137 189L138 190L137 189M207 189L208 190L207 189M757 189L758 190L757 189M1133 189L1134 190L1133 189M139 190L140 191L139 190M209 190L210 191L209 190M433 190L434 191L433 190M758 190L759 191L758 190M1134 190L1135 191L1134 190M141 191L142 192L141 191M211 191L212 192L211 191M759 191L760 192L759 191M915 191L916 192L915 191M1135 191L1136 192L1135 191M142 192L143 193L142 192M435 192L436 193L435 192M760 192L761 193L760 192M914 192L915 193L914 192M1136 192L1137 193L1136 192M144 193L145 194L144 193M214 193L215 194L214 193M436 193L437 194L436 193M761 193L762 194L761 193M913 193L914 194L913 193M1137 193L1138 194L1137 193M146 194L147 195L146 194M216 194L217 195L216 194M487 194L488 195L487 194M762 194L763 195L762 194M912 194L913 195L912 194M148 195L149 196L148 195M218 195L219 196L218 195M763 195L764 196L763 195M911 195L912 196L911 195M220 196L221 197L220 196M764 196L765 197L764 196M151 197L152 198L151 197M490 197L491 198L490 197M765 197L766 198L765 197M153 198L154 199L153 198M223 198L224 199L223 198M766 198L767 199L766 198z"/>
<path style="fill:#08b3fb; stroke:none;" d="M854 198L855 199L854 198z"/>
<path style="fill:#a4e0f5; stroke:none;" d="M155 199L156 200L155 199M225 199L226 200L225 199M1144 199L1145 200L1144 199M157 200L158 201L157 200M227 200L228 201L227 200M493 200L494 201L493 200z"/>
<path style="fill:#08b3fb; stroke:none;" d="M857 200L858 201L857 200z"/>
<path style="fill:#a4e0f5; stroke:none;" d="M905 200L906 201L905 200M1145 200L1146 201L1145 200M229 201L230 202L229 201M494 201L495 202L494 201M770 201L771 202L770 201M904 201L905 202L904 201M1146 201L1147 202L1146 201M160 202L161 203L160 202M230 202L231 203L230 202M495 202L496 203L495 202M771 202L772 203L771 202M1147 202L1148 203L1147 202M162 203L163 204L162 203M232 203L233 204L232 203M447 203L448 204L447 203M496 203L497 204L496 203M1148 203L1149 204L1148 203M164 204L165 205L164 204M234 204L235 205L234 204M448 204L449 205L448 204M497 204L498 205L497 204M900 204L901 205L900 204M1149 204L1150 205L1149 204M166 205L167 206L166 205M236 205L237 206L236 205M449 205L450 206L449 205M498 205L499 206L498 205M775 205L776 206L775 205M1150 205L1151 206L1150 205M167 206L168 207L167 206M238 206L239 207L238 206M450 206L451 207L450 206M499 206L500 207L499 206M897 206L898 207L897 206M1151 206L1152 207L1151 206M169 207L170 208L169 207M239 207L240 208L239 207M451 207L452 208L451 207M500 207L501 208L500 207M778 207L779 208L778 207M896 207L897 208L896 207M171 208L172 209L171 208M241 208L242 209L241 208M452 208L453 209L452 208M501 208L502 209L501 208M894 208L895 209L894 208M173 209L174 210L173 209M243 209L244 210L243 209M453 209L454 210L453 209M502 209L503 210L502 209M781 209L782 210L781 209M175 210L176 211L175 210M245 210L246 211L245 210M454 210L455 211L454 210M503 210L504 211L503 210M783 210L784 211L783 210M891 210L892 211L891 210M1156 210L1157 211L1156 210M176 211L177 212L176 211M455 211L456 212L455 211M504 211L505 212L504 211M889 211L890 212L889 211M1157 211L1158 212L1157 211M178 212L179 213L178 212M248 212L249 213L248 212M456 212L457 213L456 212M505 212L506 213L505 212M603 212L604 213L603 212M887 212L888 213L887 212M1005 212L1006 213L1005 212M1158 212L1159 213L1158 212M788 213L789 214L788 213M885 213L886 214L885 213M790 214L791 215L790 214M883 214L884 215L883 214M881 215L882 216L881 215M795 216L796 217L795 216M879 216L880 217L879 216M797 217L798 218L797 217M876.667 217.333L877.333 217.667L876.667 217.333M800 218L801 219L800 218z"/>
<path style="fill:#08b3fb; stroke:none;" d="M873 218L874 219L873 218z"/>
<path style="fill:#a4e0f5; stroke:none;" d="M874 218L875 219L874 218M802.667 219.333L803.333 219.667L802.667 219.333M871 219L872 220L871 219M806 220L807 221L806 220z"/>
<path style="fill:#08b3fb; stroke:none;" d="M867 220L868 221L867 220z"/>
<path style="fill:#a4e0f5; stroke:none;" d="M868 220L869 221L868 220M809.667 221.333L810.333 221.667L809.667 221.333M864.667 221.333L865.333 221.667L864.667 221.333M813.667 222.333L814.333 222.667L813.667 222.333M860.667 222.333L861.333 222.667L860.667 222.333M818.667 223.333L819.333 223.667L818.667 223.333M854 223L854 224L857 224L854 223M824 224L824 225L828 225L824 224M846 224L846 225L851 225L846 224z"/>
</svg>
