<?xml version="1.0" standalone="yes"?>
<svg xmlns="http://www.w3.org/2000/svg" width="1200" height="628">
<path style="fill:#feffff; stroke:none;" d="M0 0L0 628L1200 628L1200 0L0 0z"/>
<path style="fill:#217ea5; stroke:none;" d="M2 130L2 311L35 311L35 242L122 290.424L159 310.502L180 311L223 311L223 310C190.02 288.25 153.301 271.196 119 251.573C102.843 242.329 82.2912 225.527 64 222L64 223L157 276.1L188 293.395L216 310C203.102 308.37 189.997 309 177 309C170.452 309 163.077 310.036 157 307.176C127.36 293.225 99.9131 274.185 71 258.895C62.0334 254.154 48.1466 242.304 38.0579 241.542C31.0277 241.011 33.0017 257.614 33 262L33 295C33 298.503 34.1305 304.663 31.3966 307.397C28.256 310.537 20.0619 309 16 309C13.0059 309 8.9648 309.657 6.16281 308.397C2.54997 306.772 3.91501 302.134 3.98534 299C4.20206 289.343 4 279.659 4 270L4 166C4 158.008 -0.192644 135.773 9.04398 132.442C13.4193 130.864 28.9494 130.221 32.088 134.148C34.6992 137.415 33.9985 147.864 33.9985 152C33.9985 168 32.7497 184.023 34 200L35 200L35 130L2 130z"/>
<path style="fill:#a1d1e7; stroke:none;" d="M35 130L35 199L64 184.15L119 153L119 152C90.54 162.498 62.1485 182.579 36 198L36 151L35 130M120 151L120 152L158 131L146 136.14L120 151z"/>
<path style="fill:#217ea5; stroke:none;" d="M36 199L36 200C48.3775 198.381 61.3278 187.725 72 181.59C92.1282 170.02 112.599 159.03 133 147.969C141.377 143.427 149.152 136.953 158 133.353C174.539 126.622 199.187 133.251 217 131C205.799 142.009 186.835 148.909 173 156.248C150.318 168.28 128.739 182.487 106 194.515C94.199 200.757 70.5166 209.118 64 221L163 165.14L224 131L191 130L159 130.499L126 148.716L36 199z"/>
<path style="fill:#a1d1e7; stroke:none;" d="M224 130L219 133L219 134L224 130M246 130L246 259L246 295C246 299.155 244.732 305.878 246.603 309.682C247.928 312.374 251.484 311.982 254 311.999C259.078 312.034 277.673 314.751 280.258 309.682C282.886 304.528 281 294.692 281 289L281 238L321 238L339 239.027L361 259L397 294L415.001 310.821L430 312L463 312C460.039 303.31 449.378 296.378 443 290C425.496 272.496 402.357 256.114 388 236C409.295 232.044 434.234 228.939 448.073 210C476.699 170.821 431.042 133.315 393 133L393 134C424.609 136.516 460.827 156.598 453.905 193C452.812 198.748 450.238 204.393 446.61 209C431.289 228.46 408.063 229.733 386 235C390.43 244.499 401.583 252.525 409.285 259.514C426.283 274.936 447.783 292.237 461 311C449.277 311 427.502 315.223 417 309.972C408.338 305.641 399.871 294.604 393.116 287.611C381.868 275.966 369.693 265.142 358 253.961C352.511 248.712 346.951 240.549 340 237.259C328.812 231.964 306.097 235.569 294 236.7C289.933 237.08 282.808 234.153 280.028 238.318C276.961 242.911 279 253.64 279 259L279 311C272.764 311 251.761 314.276 248.028 308.682C245.792 305.332 247 298.843 247 295L247 263L247 175C247 160.66 244.673 143.975 248 130L246 130z"/>
<path style="fill:#217ea5; stroke:none;" d="M279 311L279 260C279 254.329 277.059 244.153 280.028 239.148C282.884 234.334 289.53 237.199 294 236.826C306.141 235.815 328.172 231.91 339.424 237.425C346.153 240.723 351.636 248.832 357 253.961C368.987 265.423 381.637 276.448 393.116 288.424C399.587 295.177 407.659 305.802 416 309.972C426.715 315.33 449.035 311 461 311C456.466 301.277 444.879 292.959 437 285.83C420.264 270.687 399.006 253.463 386 235C404.332 231.595 423.902 229.805 439 217.532C464.074 197.15 458.098 160.153 431 145.039C393.156 123.933 341.619 130 300 130C285.229 130 264.272 126.125 250.148 130.318C245.336 131.746 247 140.17 247 144L247 187L247 277C247 284.161 243.543 303.734 248.028 309.397C251.863 314.239 273.02 311 279 311z"/>
<path style="fill:#a1d1e7; stroke:none;" d="M368 130L368 131L392 133L368 130M456 130C460.438 139.516 471.259 147.168 478.715 154.421C495.081 170.341 511.245 186.543 527.804 202.255C535.74 209.785 551.389 220.109 554 231L555 231C554.154 219.771 538.497 210.404 531 202.996C506.703 178.988 483.016 150.866 456 130z"/>
<path style="fill:#217ea5; stroke:none;" d="M457 130L480 154L531 203.985L553.972 227L555 246L555 290L555.603 308.682L564 311L588 311L588 253C588 245.934 585.819 234.418 589.028 228C594.503 217.05 609.013 206.962 618 198.83C631.849 186.3 644.704 172.504 658.17 159.576C667.773 150.356 679.534 141.054 687 130L654 130C648.736 130 643.209 129.121 638.83 132.573C621.483 146.245 605.659 164.342 590 180C586.15 183.85 577.814 195.793 572 195.793C566.303 195.793 558.256 184.279 554.17 180.665C536.923 165.413 522.444 146.138 504 132.318C499.717 129.109 494.057 130 489 130L457 130z"/>
<path style="fill:#a1d1e7; stroke:none;" d="M502 130L517 144L502 130M640 130L639 132L641 132L640 130M687 130L683 136L687 130z"/>
<path style="fill:#f7bd44; stroke:none;" d="M843 273C808.59 276.001 771.277 286.829 738 270.19C708.99 255.685 703.556 215.843 718.123 189C722.479 180.974 730.541 174.53 737.286 168.518C759.947 148.315 795.843 136.278 826 137.015C837.605 137.298 848.597 141.006 860 142C843.409 128.609 811.061 130 791 130C769.687 130 749.203 132.065 729 139.436C671.707 160.339 657.887 246.438 703.001 286.826C710.386 293.438 719.628 295.412 729 297.884C752.98 304.211 778.439 303.808 802 295.656C815.306 291.052 834.168 284.443 843 273z"/>
<path style="fill:#a1d1e7; stroke:none;" d="M931 130L931 312C938.382 312 958.582 315.577 964.397 310.972C966.749 309.109 965.999 304.617 966 302L966 279L966 181L1001 212.83L1066.04 272.093L1097 300.576L1110 311.258L1141 312L1141 130L1140 130L1140 260L1140 295C1140 298.843 1141.21 305.332 1138.97 308.682C1135.97 313.178 1117.82 311.884 1113 310.682C1101.56 307.831 1089.77 291.039 1081 283.424C1052.51 258.684 1025.76 231.92 997.424 207C987.836 198.567 976.48 182.468 964 179L964 311C957.377 311 938.448 314.241 933.603 309.397C930.87 306.663 932 300.503 932 297L932 264L932 170C932 158.58 935.408 140.504 931 130z"/>
<path style="fill:#217ea5; stroke:none;" d="M932 130L932 262L932 296C932 299.531 930.699 306.457 933.028 309.397C936.863 314.239 958.02 311 964 311L964 180L963 180C961.02 198.532 963 218.322 963 237L963 272C963 280.852 966.437 299.207 961.012 306.682C957.471 311.561 936.351 310.756 934.148 304.941C929.781 293.414 934.418 278.871 933.896 267C932.493 235.106 932.998 202.932 933 171C933.001 161.881 929.358 133.462 941.001 131.863C965.505 128.497 979.049 149.422 995.286 164.389C1020.35 187.496 1045.27 210.87 1070.8 233.431C1081.94 243.269 1092.9 256.971 1106 264C1098.23 248.653 1075.8 234.348 1063 222.831C1039.16 201.372 1015.81 179.333 992 157.83C983.152 149.838 972.29 134.748 961 130.603C953.001 127.667 940.495 130 932 130z"/>
<path style="fill:#a1d1e7; stroke:none;" d="M962 130L964 132L964 130L962 130M1106 130L1106 217L1105 262C1110.56 257.143 1107 235.328 1107 228C1107 195.657 1104.53 162.164 1108 130L1106 130z"/>
<path style="fill:#217ea5; stroke:none;" d="M1107 131L1107 262C1113.19 255.935 1110 239.269 1110 231L1110 161C1110 154.408 1107.24 139.809 1111.1 134.318C1114.29 129.784 1135.82 130.097 1137.91 135.634C1142.56 147.983 1138.6 167.105 1138.04 180C1136.8 208.349 1138.86 236.774 1139 265C1139.04 274.39 1138.11 283.669 1138 293C1137.96 296.871 1139.23 303.304 1136.97 306.682C1134.01 311.116 1119.73 309.421 1115 308.891C1109.15 308.237 1105.78 303.343 1101.74 299.647C1094.52 293.042 1087.26 286.505 1080 279.925C1054.05 256.393 1027.13 233.336 1002.04 208.975C993.049 200.246 977.568 179.939 965 178L965 179C979.94 189.216 992.575 203.699 1006 215.83C1031.44 238.817 1056.51 262.231 1082 285.169C1090.32 292.655 1100.39 306.537 1111 310.397C1115.39 311.994 1121.39 311 1126 311C1129.4 311 1134.55 311.936 1137.68 310.397C1141.21 308.661 1140 302.189 1140 299L1140 267L1140 130L1107 131z"/>
<path style="fill:#a1d1e7; stroke:none;" d="M1162 130L1168 133L1169 148C1173.06 144.026 1172 138.345 1172 133L1178 132L1179 148L1182 139L1183 139C1185.49 149.345 1190.61 146.713 1193 138L1194 138C1194 141.466 1192.91 146.486 1197 147L1195 134L1194 134L1186 146L1181 135L1181 146L1179 146L1179 130L1171 132L1170 146L1169 146L1168 131L1162 130z"/>
<path style="fill:#217ea5; stroke:none;" d="M1164 130L1164 131L1168 131L1169 146L1170 146L1171 132L1176 131L1164 130M1179 130L1179 146L1181 146L1181 135L1186 146C1190.86 144.337 1192.18 138.447 1194 134L1195 134L1195 146L1197 146L1197 130C1191.29 130.981 1189.88 136.863 1189 142L1179 130z"/>
<path style="fill:#a1d1e7; stroke:none;" d="M1182 130L1183 131L1182 130M1192.33 130.667L1192.67 131.333L1192.33 130.667z"/>
<path style="fill:#0a88be; stroke:none;" d="M216 310C209.089 298.692 185.426 291.146 174 284.664C138.12 264.308 101.889 239.348 64 223C68.0601 211.658 88.1362 205.314 98 199.459C123.031 184.602 148.939 168.638 175 155.757C184.915 150.856 194.274 144.987 204 139.734C208.481 137.313 214.09 135.32 217 131C203.99 132.027 191.074 132 178 132C171.317 132 163.302 130.788 157 133.353C148.152 136.953 140.377 143.427 132 147.969C111.599 159.03 91.1282 170.02 71 181.59C59.4587 188.225 47.2649 197.66 34 200C33.5205 188.065 32.0405 174.866 33.1698 163C33.8816 155.52 36.355 141.166 32.6512 134.318C30.3614 130.084 12.0927 130.75 8.1088 132.407C-0.236685 135.878 4 158.377 4 166L4 270C4 279.641 4.3781 289.368 3.96065 299C3.83885 301.81 2.07504 306.773 5.32176 308.397C8.19833 309.835 12.8755 309 16 309C19.9292 309 28.1497 310.544 31.3966 307.972C34.2163 305.739 33 299.151 33 296L33 262C33.0067 257.813 31.5901 241.611 38.0579 241.967C47.5471 242.489 61.5517 254.428 70 258.895C98.9151 274.186 126.361 293.225 156 307.176C162.325 310.153 170.182 309 177 309C190.074 309 202.99 308.973 216 310M249 132C251.43 172.991 249 214.915 249 256L249 290C249 294.679 247.774 301.502 249.742 305.852C251.977 310.791 270.29 310.497 274.697 308.397C279.721 306.003 278.256 294.474 277.83 290C276.897 280.193 278.226 270.822 277.985 261C277.818 254.164 276.179 246.153 278.167 239.429C279.907 233.54 287.172 234.359 292 234.086C305.834 233.302 323.453 231.675 337 234.634C346.291 236.664 355.011 249.1 361.427 255.715C371.489 266.088 383.247 274.911 393.279 285.285C400.034 292.27 407.58 302.993 416.09 307.682C425.454 312.842 445.399 309 456 309C452.085 301.454 444.47 295.91 438.46 290.004C426.605 278.355 414.246 267.061 402.831 255C398.318 250.232 387.449 243.864 386.327 237.044C385.361 231.172 405.535 229.405 410 228.453C429.108 224.38 449.687 211.901 452.7 191C457.051 160.819 433.36 146.035 408 138.495C380.825 130.416 351.913 132 324 132C299.205 132 273.677 130.257 249 132M461 132C467.593 141.203 477.465 148.222 485.41 156.235C499.141 170.085 512.562 184.766 527.001 197.829C535.479 205.5 553.077 216.631 556.142 228.039C561.016 246.18 557 270.236 557 289C557 294.027 554.72 306.832 561.133 308.682C567.184 310.428 584.832 311.365 586.517 303.981C590.393 286.998 587.082 265.425 586.999 248C586.969 241.699 584.621 232.865 587.446 227.039C591.51 218.66 601.858 212.151 608.428 205.741C625.169 189.407 641.716 172.841 658.375 156.449C666.115 148.834 676.921 141.785 682 132C672.06 130.949 651.511 128.747 642.286 132.603C636.955 134.832 632.352 141.741 628.424 145.83C620.961 153.601 612.932 160.887 605 168.104C597.572 174.863 590.313 182.302 583.209 189.424C579.949 192.692 577.278 197.627 572 197.638C567.385 197.648 564.443 193.089 561.579 190.129C554.628 182.943 547.173 176.02 540 169.015C530.912 160.138 521.689 151.212 512.286 142.665C508.725 139.429 505.284 134.467 500.961 132.322C497.236 130.474 492.942 131.889 489 131.985C479.735 132.212 470.108 130.284 461 132M1105 264C1068.02 225.244 1023.55 193.551 986.286 155C974.842 143.162 965.731 132.976 949 131.911C944.934 131.652 939.926 130.611 936.232 133.013C930.287 136.879 933.033 160.255 933.001 167C932.838 200.781 935.521 235.331 933.791 269C933.294 278.676 932.776 288.27 933.015 298C933.092 301.132 932.982 306.783 936.314 308.397C940.313 310.334 959.103 310.767 961.486 306.682C965.474 299.847 963 286.652 963 279L963 210C963 204.806 959.765 181.003 966.137 179.331C969.928 178.337 974.482 184.223 976.985 186.421C986.561 194.827 995.174 204.442 1005 212.535C1032.4 235.104 1057.02 261.101 1084 284.271C1092.09 291.22 1101.05 304.319 1111.09 308.262C1116.82 310.515 1126.89 309.496 1132.98 308.941C1138.69 308.422 1138 303.55 1138 299C1138 288.646 1139 278.387 1139 268C1139 239.365 1137.31 210.752 1138.01 182C1138.36 167.736 1142.05 150.058 1138.41 136.059C1136.91 130.29 1114.68 129.553 1111.02 133.603C1106.66 138.426 1110 157.47 1110 164L1110 234C1110 244.406 1112.34 255.811 1105 264z"/>
<path style="fill:#a1d1e7; stroke:none;" d="M1183.33 131.667L1183.67 132.333L1183.33 131.667M638 132L639 133L638 132M964 132L970 137L964 132M1191.33 132.667L1191.67 133.333L1191.33 132.667M637 133L638 134L637 133M1184 133L1185 138L1186 138L1184 133M212 137L212 138L219 135L212 137M636 134L637 135L636 134M1190 134L1190 137L1191 137L1190 134M635 135L636 136L635 135M634 136L635 137L634 136M672 146L683 136L672 146M633 137L634 138L633 137M815 137L815 138L832 138L815 137M970 137L971 138L970 137M1189.33 137.667L1189.67 138.333L1189.33 137.667M203 142L203 143L212 139L203 142M632 138L633 139L632 138M806 138L806 139L813 139L806 138z"/>
<path style="fill:#217ea5; stroke:none;" d="M735 170L735 171C742.749 168.885 750.037 165.863 758 164.424C795.384 157.67 859.173 156.044 872.41 201C874.276 207.337 874.978 214.399 874.999 221C875.028 230.039 873.512 239.744 869.676 248C863.635 261.002 851.451 269.086 840 276.975C814.391 294.617 782.371 305.828 751 302.83C739.175 301.7 728.491 297.402 717 295C731.611 307.106 755.047 308.138 773 310.285C812.968 315.066 866.153 309.161 892.32 275C918.047 241.414 912.776 175.812 877 151.221C854.384 135.675 820.692 135.708 795 141.211C772.733 145.98 753.632 157.428 735 170z"/>
<path style="fill:#a1d1e7; stroke:none;" d="M834 138L834 139L842 139L834 138M971 138L972 139L971 138M1186 138C1186.52 140.769 1188.18 142.834 1189 139L1186 138M631 139L632 140L631 139M800 139L800 140L804 140L800 139M842 139L842 140L848 140L842 139M972 139L973 140L972 139M630 140L631 141L630 140M795 140L795 141L799 141L795 140z"/>
<path style="fill:#0a88be; stroke:none;" d="M752 163C760.132 163.726 768.86 160.957 777 160.17C799.816 157.962 837.949 158.444 856.7 173.443C879.028 191.304 885.48 236.062 865.582 258.572C840.334 287.134 799.665 304.383 762 306C774.922 313.892 803.39 309.73 818 308.166C834.68 306.38 853.472 302.923 868 294.032C910.247 268.176 922.177 193.279 882.871 158.455C857.211 135.721 815.276 137.235 785 147.327C773.707 151.091 760.622 154.034 752 163z"/>
<path style="fill:#a1d1e7; stroke:none;" d="M848 140L848 141L856 142L848 140M973 140L974 141L973 140M629 141L630 142L629 141M791 141L791 142L794 142L791 141M974 141L975 142L974 141M624 147L629 142L624 147M788.667 142.333L789.333 142.667L788.667 142.333M856 142L856 143L876 150C870.957 144.903 863.091 142.166 856 142M975 142L976 143L975 142M194 147L194 148L203 144L194 147M784 143L784 144L787 144L784 143M976 143L978 145L978 143L976 143M517 144L518 145L517 144M778 145L778 146L783 145L778 145M518 145L519 146L518 145M978 145L984 150L978 145M519 146L520 147L519 146M671 146L669 149L671 146M776.667 146.333L777.333 146.667L776.667 146.333M520 147L521 148L520 147M612 158L624 147L612 158M773.667 147.333L774.333 147.667L773.667 147.333M187 151L187 152L194 149L187 151M521 148L522 149L521 148M771.667 148.333L772.333 148.667L771.667 148.333M522 149L523 150L522 149M668 149L664 154L668 149M768.667 149.333L769.333 149.667L768.667 149.333M523 150L524 151L523 150M766.667 150.333L767.333 150.667L766.667 150.333M876 150L880 153L876 150M984 150L986 152L986 150L984 150M524 151L525 152L524 151M764.667 151.333L765.333 151.667L764.667 151.333M173 159L173 160L187 153L173 159M525 152L526 153L525 152M762.667 152.333L763.333 152.667L762.667 152.333M986 152L987 153L986 152M526 153L527 154L526 153M761 153L762 154L761 153M880 153L881 154L880 153M987 153L995 160L987 153M527 154L528 155L527 154M663 154L664 155L663 154M758.667 154.333L759.333 154.667L758.667 154.333M881 154L882 155L881 154M528 155L533 160L528 155M662 155L663 156L662 155M756.667 155.333L757.333 155.667L756.667 155.333M882 155L888 161L882 155M661 156L662 157L661 156M755 156L756 157L755 156M660 157L661 158L660 157M753.667 157.333L754.333 157.667L753.667 157.333M611 158L610 160L612 160L611 158M659 158L660 159L659 158M752 158L753 159L752 158M658 159L659 160L658 159M751 159L752 160L751 159M171.667 160.333L172.333 160.667L171.667 160.333z"/>
<path style="fill:#217ea5; stroke:none;" d="M280.532 161.029C272.312 166.458 278.452 186.841 277.91 195C277.642 199.053 276.462 203.706 281.059 205.883C288.484 209.399 305.58 206 314 206C338.748 206 364.497 208.009 389.09 205.232C398.704 204.146 410.917 202.833 418.657 196.301C434.849 182.635 414.837 167.545 402 164.503C372.841 157.594 341.748 160 312 160C304.404 160 286.965 156.78 280.532 161.029z"/>
<path style="fill:#a1d1e7; stroke:none;" d="M533 160L536 163L533 160M609 160L608 162L610 162L609 160M656 160L656 162L658 160L656 160M748.667 160.333L749.333 160.667L748.667 160.333M995 160L996 161L995 160M164 164L164 165L171 162L164 164M747 161L748 162L747 161M888 161L890 163L890 161L888 161M996 161L997 162L996 161M280.603 163.028C278.25 164.891 279.001 169.383 279 172L279 195C279.001 197.876 278.159 202.842 281.318 204.397C289.032 208.192 305.412 205 314 205C336.706 205 359.363 205.067 382 204.039C393.702 203.508 408.982 202.527 417.867 193.79C432.386 179.512 410.692 168.42 399 165.654C370.718 158.964 339.853 162 311 162C304.214 162 285.988 158.763 280.603 163.028M607 162L606 164L608 164L607 162M655 162L656 163L655 162M745 162L746 163L745 162M731 175C739.05 170.881 747.245 168.181 756 166.004C800.408 154.962 878.016 161.609 873.911 223C873.008 236.495 869.662 250.037 859.96 259.985C854.244 265.846 845.394 269.177 841 276C877.955 260.455 888.781 201.895 856.829 175.885C835.707 158.691 798.514 160.401 773 162.83C760.181 164.051 739.865 164.063 731 175M997 162L998 163L997 162z"/>
<path style="fill:#feffff; stroke:none;" d="M281 163L281 204C316.413 204 353.917 207.444 389 202.421C399.732 200.884 420.865 198.727 420.913 184C420.96 169.387 399.868 166.694 389 165.131C353.73 160.06 316.595 163 281 163z"/>
<path style="fill:#a1d1e7; stroke:none;" d="M536 163L539 166L536 163M654 163L655 164L654 163M744 163L745 164L744 163z"/>
<path style="fill:#feffff; stroke:none;" d="M778 163.424C760.666 165.7 741.451 165.763 727.001 177.379C703.756 196.064 704.584 244.909 727.001 263.674C750.099 283.01 790.878 281.089 819 277.715C834.773 275.822 849.653 271.939 860.907 259.985C879.538 240.193 878.63 199.278 859.816 180.004C841.694 161.439 802.156 160.253 778 163.424z"/>
<path style="fill:#a1d1e7; stroke:none;" d="M890 163L891 164L890 163M998 163L1008 172L998 163M605 164L606 165L605 164M653 164L654 165L653 164M742.667 164.333L743.333 164.667L742.667 164.333M891 164L894 168L891 164M162.667 165.333L163.333 165.667L162.667 165.333M604 165L602 168L604 165M652 165L653 166L652 165M741 165L742 166L741 165M160.667 166.333L161.333 166.667L160.667 166.333M539 166L544 170L539 166M651 166L652 167L651 166M739.667 166.333L740.333 166.667L739.667 166.333M158.667 167.333L159.333 167.667L158.667 167.333M650 167L651 168L650 167M738 167L739 168L738 167M155 170L158 168L155 170M601 168L600 170L602 170L601 168M649 168L650 169L649 168M736.667 168.333L737.333 168.667L736.667 168.333M894 168L896 173L897 173L894 168M648 169L649 170L648 169M151 171L151 172L155 171L151 171M544 170L552 178L544 170M598 170L598 172L600 170L598 170M631 186L648 170L631 186M148 174L151 172L148 174M597 172L598 173L597 172M1008 172L1010 174L1010 172L1008 172M596 173L597 174L596 173M897 173L899 179L900 179L897 173M146.667 174.333L147.333 174.667L146.667 174.333M594 174L594 176L596 174L594 174M1010 174L1012 176L1012 174L1010 174M144.667 175.333L145.333 175.667L144.667 175.333M141 178L144 176L141 178M593 176L594 177L593 176M1012 176L1018 181L1012 176M592 177L593 178L592 177M139.667 178.333L140.333 178.667L139.667 178.333M552 178L555 181L552 178M590 178L590 180L592 178L590 178M137.667 179.333L138.333 179.667L137.667 179.333M900 179L903 190L904 190L900 179M134 182L137 180L134 182M589 180L590 181L589 180M555 181L556 182L555 181M588 181L589 182L588 181M1018 181L1019 182L1018 181M130 183L130 184L134 183L130 183M556 182L557 183L556 182M567 193C574.103 201.492 583.709 188.092 588 182C580.132 185.669 576.573 196.021 567 193M1019 182L1019 184L1021 184L1019 182M557 183L558 184L557 183M123 187L123 188L130 185L123 187M558 184L559 185L558 184M1021 184L1022 185L1021 184M559 185L560 186L559 185M1022 185L1024 187L1024 185L1022 185M560 186L562 188L562 186L560 186M630 186L631 187L630 186M629 187L630 188L629 187M1024 187L1030 192L1024 187M121.667 188.333L122.333 188.667L121.667 188.333M562 188L564 190L564 188L562 188M628 188L629 189L628 188M116 191L116 192L121 190L116 191M627 189L628 190L627 189M564 190L566 192L566 190L564 190M626 190L627 191L626 190M904 190L906 203L907 203L904 190M625 191L626 192L625 191M114.667 192.333L115.333 192.667L114.667 192.333M566 192L567 193L566 192M624 192L625 193L624 192M1030 192L1030 194L1032 194L1030 192M112.667 193.333L113.333 193.667L112.667 193.333M623 193L624 194L623 193M107 196L107 197L112 195L107 196M622 194L623 195L622 194M1032 194L1033 195L1032 194M621 195L622 196L621 195M1033 195L1034 196L1033 195M620 196L621 197L620 196M1034 196L1035 197L1034 196M105.667 197.333L106.333 197.667L105.667 197.333M619 197L620 198L619 197M1035 197L1036 198L1035 197M103.667 198.333L104.333 198.667L103.667 198.333M618 198L619 199L618 198M1036 198L1042 203L1036 198M98 201L98 202L103 200L98 201M617 199L618 200L617 199M616 200L617 201L616 200M600 216L616 201L600 216M96.6667 202.333L97.3333 202.667L96.6667 202.333M91 205L91 206L96 204L91 205M1042 203L1043 204L1042 203M907 204L904 251L905 251C909.034 238.244 912.372 216.683 907 204M1043 204L1044 205L1043 204M1044 205L1045 206L1044 205M89.6667 206.333L90.3333 206.667L89.6667 206.333M1045 206L1046 207L1045 206M87.6667 207.333L88.3333 207.667L87.6667 207.333M1046 207L1047 208L1046 207M82 210L82 211L87 209L82 210M1047 208L1048 209L1047 208M1048 209L1056 216L1048 209M80.6667 211.333L81.3333 211.667L80.6667 211.333M75 214L75 215L80 213L75 214M71 216L71 217L75 216L71 216M599 216L595 221L599 216M1056 216L1057 217L1056 216M65 222L69 223L67 220L71 218L65 222M1057 217L1058 218L1057 217M1058 218L1059 219L1058 218M1059 219L1064 224L1059 219M594 221L592 224L594 221M69 223L72 225L69 223M591 224C585.97 230.992 588 241.7 588 250L588 311L589 311L589 241L591 224M1064.67 224.333L1065.33 224.667L1064.67 224.333M72.6667 225.333L73.3333 225.667L72.6667 225.333M1066 225L1067 226L1066 225M74.6667 226.333L75.3333 226.667L74.6667 226.333M1067 226L1068 227L1067 226M76.6667 227.333L77.3333 227.667L76.6667 227.333M1068 227L1069 228L1068 227M78 228L78 229L85 232L85 231L78 228M1069 228L1070 229L1069 228M1070 229L1080 238L1070 229M85 232L85 233L92 236L92 235L85 232M92.6667 236.333L93.3333 236.667L92.6667 236.333M94.6667 237.333L95.3333 237.667L94.6667 237.333M96 238L99 240L96 238M1080 238L1082 240L1082 238L1080 238M99.6667 240.333L100.333 240.667L99.6667 240.333M1082 240L1083 241L1082 240M101 241L101 242L108 245L108 244L101 241M1083 241L1091 248L1083 241M35 242L35 311L36 311C36 289.335 31.983 263.073 37 242L35 242M37 243L37 244L42 246L42 245L37 243M108.667 245.333L109.333 245.667L108.667 245.333M42 246L42 247L51 251L51 250L42 246M110.667 246.333L111.333 246.667L110.667 246.333M112 247L115 249L112 247M1091 248L1092 249L1091 248M115.667 249.333L116.333 249.667L115.667 249.333M1092 249L1093 250L1092 249M117 250L117 251L126 255L126 254L117 250M1093 250L1094 251L1093 250M51.6667 251.333L52.3333 251.667L51.6667 251.333M903 251L901 260L902 260L903 251M1094 251L1104 260L1094 251M53 252L53 253L58 255L58 254L53 252M58.6667 255.333L59.3333 255.667L58.6667 255.333M126.667 255.333L127.333 255.667L126.667 255.333M60.6667 256.333L61.3333 256.667L60.6667 256.333M128 256L128 257L133 259L133 258L128 256M554 256L554 264L555 264L554 256M62 257L62 258L67 260L67 259L62 257M133.667 259.333L134.333 259.667L133.667 259.333M67.6667 260.333L68.3333 260.667L67.6667 260.333M135 260L136 261L135 260M900 260L896 270L897 270L900 260M1104 260L1105 261L1104 260M69 261L69 262L73 263L73 262L69 261M136 261L136 262L142 264L142 263L136 261M73 263L76 265L73 263M142.667 264.333L143.333 264.667L142.667 264.333M76.6667 265.333L77.3333 265.667L76.6667 265.333M144 265L144 266L149 268L149 267L144 265M78.6667 266.333L79.3333 266.667L78.6667 266.333M80 267L83 269L80 267M149.667 268.333L150.333 268.667L149.667 268.333M83.6667 269.333L84.3333 269.667L83.6667 269.333M151 269L151 270L156 272L156 271L151 269M85 270L85 271L92 274L92 273L85 270M895.333 270.667L895.667 271.333L895.333 270.667M156 272L156 273L165 277L165 276L156 272M554 272L554 288L555 288L554 272M894 272L895 273L894 272M893 273L892 276L893 273M92.6667 274.333L93.3333 274.667L92.6667 274.333M94.6667 275.333L95.3333 275.667L94.6667 275.333M96 276L96 277L101 279L101 278L96 276M840 276L841 277L840 276M891 276L892 277L891 276M165.667 277.333L166.333 277.667L165.667 277.333M838.667 277.333L839.333 277.667L838.667 277.333M890 277L886 283L890 277M167.667 278.333L168.333 278.667L167.667 278.333M837 278L838 279L837 278M101 279L101 280L105 281L105 280L101 279M169 279L169 280L174 282L174 281L169 279M835.667 279.333L836.333 279.667L835.667 279.333M834 280L835 281L834 280M105 281L106 282L105 281M832.667 281.333L833.333 281.667L832.667 281.333M106 282L106 283L110 284L110 283L106 282M174 282L174 283L178 284L178 283L174 282M830.667 282.333L831.333 282.667L830.667 282.333M828.667 283.333L829.333 283.667L828.667 283.333M885 283L886 284L885 283M110.667 284.333L111.333 284.667L110.667 284.333M178 284L178 285L188 290L188 289L178 284M827 284L828 285L827 284M880 288L885 284L880 288M112 285L115 287L112 285M825 285L826 286L825 285M823.667 286.333L824.333 286.667L823.667 286.333M115.667 287.333L116.333 287.667L115.667 287.333M821.667 287.333L822.333 287.667L821.667 287.333M117 288L117 289L124 292L124 291L117 288M819.667 288.333L820.333 288.667L819.667 288.333M878 288L878 290L880 288L878 288M817.667 289.333L818.333 289.667L817.667 289.333M188.667 290.333L189.333 290.667L188.667 290.333M815 290L816 291L815 290M875 292L878 290L875 292M190.667 291.333L191.333 291.667L190.667 291.333M812 291L812 292L815 292L812 291M124.667 292.333L125.333 292.667L124.667 292.333M192 292L192 293L199 296L199 295L192 292M810.667 292.333L811.333 292.667L810.667 292.333M872 294L875 292L872 294M126.667 293.333L127.333 293.667L126.667 293.333M712 293L713 294L712 293M807 293L807 294L810 294L807 293M128 294L131 296L128 294M713 294L713 295L733 303L733 302L717 296L719 295L713 294M805.667 294.333L806.333 294.667L805.667 294.333M860 299L860 300L872 295L860 299M719.667 295.333L720.333 295.667L719.667 295.333M802.667 295.333L803.333 295.667L802.667 295.333M131 296L131 297L140 301L140 300L131 296M199.667 296.333L200.333 296.667L199.667 296.333M723 296L724 297L723 296M799.667 296.333L800.333 296.667L799.667 296.333M201 297L201 298L206 300L206 299L201 297M725 297L725 298L728 298L725 297M796 297L796 298L799 298L796 297M729 298L729 299L732 299L729 298M792 298L792 299L795 299L792 298M732 299L732 300L735 300L732 299M788 299L788 300L792 300L788 299M206.667 300.333L207.333 300.667L206.667 300.333M736 300L736 301L741 301L736 300M783 300L783 301L787 301L783 300M858.667 300.333L859.333 300.667L858.667 300.333M140.667 301.333L141.333 301.667L140.667 301.333M208 301L208 302L213 304L213 303L208 301M741 301L741 302L746 302L741 301M776 301L776 302L781 302L776 301M850 303L850 304L858 302L850 303M142.667 302.333L143.333 302.667L142.667 302.333M748 302L748 303L762 303L748 302M763 302L763 303L776 303L763 302M144 303L144 304L153 308L153 307L144 303M733 303L733 304L736 304L733 303M213.667 304.333L214.333 304.667L213.667 304.333M554 304L554 310L555 310L554 304M736 304L736 305L742 306L742 305L736 304M843 305L843 306L850 305L843 305M215.667 305.333L216.333 305.667L215.667 305.333M217.667 306.333L218.333 306.667L217.667 306.333M742 306L742 307C764.834 311.302 786.816 312 810 312L781 310.985L742 306M828 308L828 309L843 307L828 308M219 307L219 308L223 310L223 311L158 311L158 312L225 312L219 307M153 308L153 309L158 311L158 310L153 308M810 310L810 311L828 310L810 310M555 310C559.78 315.47 580.789 312 588 312L588 311L555 310M2 311L2 312L35 312L2 311M340 488L340 487C318.296 477.901 319.527 443.573 346 443.573C372.219 443.573 373.525 477.977 352 487C360.623 489.358 367.765 477.112 368.79 470C370.771 456.263 362.801 444.592 349 442.441C320.767 438.04 312.381 483.016 340 488M2 443L2 444C11.1081 444 35.6439 440.362 33.7284 456C33.2807 459.655 30.4554 462.708 29 466C42.827 477.586 28.7064 486.992 16 487L16 488C31.0608 488 44.1939 477.825 30 464C38.1801 459.721 36.8989 448.535 28.9846 444.457C21.8332 440.771 9.87448 443 2 443M92 488L91 444L120 444L120 448C114.679 448 101.883 445.638 97.6034 449.028C94.8175 451.234 94.9788 460.754 98.3179 462.397C103.672 465.031 114.078 463 120 463L120 467L109 467C105.801 467 101.263 466.241 98.3179 467.742C95.0026 469.432 94.7971 478.75 97.6034 480.972C101.918 484.39 110.822 480.926 115.937 482.317C118.85 483.11 119.292 484.711 118 487L118 488C121.135 487.328 122.581 482.876 118.889 481.333C112.638 478.721 103.755 481.817 97 480C97.5459 476.631 96.4616 471.312 100.229 469.603C104.266 467.773 119.735 471.964 120.534 465.83C121.643 457.316 88.7768 468.058 98.1582 452.318C103.217 443.83 120.523 457.339 121 443C114.364 443 96.864 439.861 91.6034 444.028C89.082 446.025 90.0002 451.197 90 454C89.9995 461.328 86.4415 483.143 92 488M235 443L250.772 469L252 488L253 488L252.348 469L236 444C244.615 444.655 250.077 456.114 254 463L257 463C260.899 455.997 266.239 444.666 275 444C270.063 452 261.378 459.952 258.649 469C256.949 474.636 260.51 483.428 255 487L255 488L259 488L260.275 469L276 443C265.799 443.12 260.044 453.488 256 462C250.265 453.992 245.955 443.129 235 443z"/>
<path style="fill:#217ea5; stroke:none;" d="M344 443.468C314.743 446.423 319.789 490.752 349 487.895C376.617 485.194 372.06 440.633 344 443.468z"/>
<path style="fill:#a1d1e7; stroke:none;" d="M436 488L436 487C418.989 480.462 424 458.819 424 444C435.241 447.412 425.059 470.52 431.653 478.867C436.789 485.368 448.987 484.265 452.825 476.985C456.565 469.89 455.313 452.76 454 445L460 444C460 458.659 464.341 479.793 448 487C462.688 490.841 461 462.745 461 455C461 451.723 462.348 444.291 457.871 443.377C452.249 442.228 453.002 449.591 453 453C452.996 461.897 456.171 477.932 444.996 481.343C427.983 486.538 430.001 463.668 430 454C430 450.622 431.176 443.296 426 443.296C420.056 443.296 422 454.238 422 458C422 469.802 421.318 485.341 436 488M518 488L517 444C528.377 444 542.927 441.108 548 454C551.119 442.076 525.287 440.174 518.318 443.603C514.964 445.254 516 450.963 516 454C516 461.328 512.441 483.143 518 488M672 488L672 487C664.479 482.853 668 463.713 668 456C668 452.899 667.177 448.029 669.603 445.603C674.098 441.109 692.275 443.637 698 445C695.152 441.741 689.068 443 685 443C681.062 443 670.746 441.171 668.028 444.603C666.088 447.052 667 452.09 667 455C667 462.383 663.093 486.513 672 488M764 488L764 487C747.489 479.737 752 458.88 752 444L757 444C757 453.442 754.169 468.439 758.688 476.957C762.692 484.502 776.204 485.56 780.721 477.895C785.875 469.15 783 453.807 783 444L788 444C788 458.884 792.556 479.713 776 487L776 488C790.827 485.131 789 469.682 789 458C789 450.962 790.967 443.294 782 443C782 452.684 784.628 467.195 779.836 475.981C775.278 484.337 763.536 483.16 759.573 474.995C755.402 466.404 758 452.371 758 443C749.033 443.294 751 450.962 751 458C751 469.496 749.33 485.04 764 488M856 450L856 488L857 488L857 459L855.258 449.028L842 448L842 444L876 445L876 447C872.656 447.796 865.244 446.805 863.028 449.603C856.216 458.204 869.041 480.49 859 487L859 488L863 488L863 450C876.323 450 880.881 443 865 443C859.119 443 848.645 440.973 843.319 443.603C840.863 444.816 840.863 448.184 843.319 449.397C846.675 451.054 852.33 450 856 450M942 488L942 487C929.678 480.868 930 470.295 930 458C930 452.548 928.42 444.344 936 445C933.637 452.995 932.945 469.513 937.14 476.985C941.211 484.237 953.008 485.337 958.347 478.786C964.453 471.295 961 453.202 961 444L967 445C962.454 460.38 972.803 478.729 954 487C969.315 491.185 968.001 463.258 968 455C968 451.756 969.223 444.313 964.791 443.377C959.244 442.204 960.002 449.691 960 453C959.996 461.795 962.985 477.863 951.985 481.346C934.95 486.742 937.001 463.703 937 454C937 450.622 938.176 443.296 933 443.296C927.209 443.296 929 453.33 929 457C929 468.51 927.3 485.148 942 488M1025 488L1024 444C1031.78 444 1041.93 442.282 1048.91 446.417C1059.25 452.548 1054.89 465.637 1045 469L1054 488C1058.11 484.001 1048.5 474.539 1047 470C1056.14 466.428 1060.01 453.439 1051.89 446.394C1047.12 442.259 1040.87 443 1035 443C1032.06 443 1025.21 441.756 1023.27 444.603C1020.18 449.124 1023 464.356 1023 470C1023 474.901 1021.1 484.593 1025 488M1112 488L1111 444L1140 444L1140 448C1134.08 448 1123.67 445.969 1118.32 448.603C1114.98 450.246 1114.82 459.766 1117.6 461.972C1123.98 467.021 1135.24 458.366 1140 467C1134.03 467 1123.7 464.998 1118.32 467.742C1115.07 469.396 1114.6 479.676 1117.6 481.732C1123.07 485.47 1140.01 476.39 1139 488C1141.8 485.537 1140.87 481.817 1136.94 481.148C1130.62 480.071 1123.42 481 1117 481C1117 477.316 1115.99 471.42 1120.15 469.603C1124.14 467.86 1140.36 471.976 1140.36 465.09C1140.36 456.34 1115.18 469.135 1117.25 455.019C1118.39 447.184 1130.49 450.441 1135.98 449.941C1138.58 449.705 1142.29 447.729 1139.95 444.599C1137.46 441.252 1113.6 441.355 1111.03 444.603C1109.09 447.052 1110 452.09 1110 455C1110 462.18 1106.54 483.228 1112 488z"/>
<path style="fill:#217ea5; stroke:none;" d="M2 444L2 476C2 478.955 0.935964 484.695 3.58873 486.796C15.3328 496.1 49.9049 477.927 29 466C30.4585 463.755 32.3372 461.535 33.2623 458.998C39.9995 440.526 11.8543 444 2 444M91 444L92 488C99.6204 487.118 107.358 487.523 114.981 487.467C117.181 487.451 121.555 485.538 118.377 483.012C113.243 478.932 103.811 484.638 98.3179 480.972C94.5785 478.477 95.0171 469.611 99.1481 467.742C104.683 465.238 113.999 467 120 467L120 463L98 463L99 466C91.5377 468.265 93.5869 478.281 96 484C89.9304 480.065 90.6858 449.482 97 446L97 447C92.0632 450.56 94 459.452 94 465C97.9561 460.648 93.9518 454.927 97.0278 450.318C100.254 445.483 114.809 448 120 448L120 444L91 444M236 444L251.995 469L253 488L258 487L258.995 469L275 444C266.042 444.293 259.922 455.291 257 463L254 463C251.085 455.422 244.78 444.287 236 444M424 444C424 454.086 420.801 470.868 425.688 479.91C431.732 491.09 451.353 490.78 457.442 479.985C462.87 470.362 460 454.694 460 444L454 445C454.437 453.338 456.775 468.411 452.824 476C448.345 484.603 436.159 485.301 431.009 476.981C426.283 469.345 434.342 445.726 424 444M517 444L518 488C525.182 485.113 519.547 477.531 523.028 472.318C529.542 462.561 540.475 483.908 543 488L548 488L538 470L536 472L535 472L530 467C533.967 467.044 539.343 469.581 542.921 467.664C550.954 463.358 550.328 450.62 542.945 446.09C536.121 441.902 524.693 444 517 444M673 488C674.264 482.691 672.041 473.793 675.028 469.318C678.185 464.586 691.944 467 697 467L697 463L674 463L672 482L671 482L670 458L671.603 448.773L698 448L698 445C693.029 443.531 672.547 441.16 669.028 445.603C667.088 448.052 668 453.09 668 456C668 464.352 664.106 484.226 673 488M752 444C752 454.572 749.059 470.438 754.279 479.985C760.389 491.161 779.394 490.633 785.633 479.985C791.068 470.707 788 454.455 788 444L783 444C783 453.74 785.659 468.186 780.721 476.957C775.582 486.086 762.08 484.08 758.228 474.996C754.594 466.423 757 453.198 757 444L752 444M842 444L842 448L855.258 449.603L857 460L857 488L862 487L862 460L863.603 449.603L876 447L876 445L842 444M967 445L961 444C961 453.16 964.028 468.982 958.991 476.957C953.685 485.357 941.799 484.444 937.14 475.996C932.888 468.286 934.024 453.301 936 445C927.432 443.05 930 455.455 930 461C930 468.757 929.168 479.023 936.105 484.312C947.202 492.772 965.595 486.701 965.985 472C966.222 463.101 964.926 453.712 967 445M1024 444L1024 475C1024 478.013 1022.92 483.853 1025.01 486.338C1029.18 491.304 1029 471.879 1029 470C1041.56 470.044 1044.68 489.31 1055 487L1045 469C1054.7 467.042 1059.34 453.55 1050.67 446.995C1043.85 441.84 1032.02 444 1024 444M1111 444L1112 488L1139 488C1141.17 478.454 1122.99 482.314 1117 482L1118 485L1113 482C1119.28 480.654 1113.46 472.226 1117.33 468.5C1121.39 464.603 1134.67 467 1140 467C1136.24 455.669 1115.37 471.431 1116.04 454.005C1116.12 451.925 1116.52 450.015 1117 448L1113 469C1113 461.863 1109.77 447.471 1119 446L1118 448L1140 448L1140 444L1111 444z"/>
<path style="fill:#0a88be; stroke:none;" d="M3 450L12 447C7.83414 444.853 5.23338 446.055 3 450M20 446L20 447L25 447L20 446M96 484C93.9637 477.576 91.8147 469.624 99 466L98 463L94 465C94 458.891 92.5534 451.71 97 447C92.9594 445.063 93.007 449.983 93 453C92.9867 458.761 90.087 482.733 96 484M113 446L114 447L113 446M519 453L521 453L525 447C520.284 445.176 519.225 448.944 519 453M534 446L535 447L534 446M689 446L689 447L692 447L689 446z"/>
<path style="fill:#a1d1e7; stroke:none;" d="M697 446L698 447L697 446z"/>
<path style="fill:#0a88be; stroke:none;" d="M846 446L846 447C851.917 447.001 855.443 446.825 859 452L860 452L867 447L846 446M1040 446L1040 447L1044 447L1040 446M1113 469C1119.82 463.114 1110.34 454.137 1119 447C1109.96 443.564 1113 463.862 1113 469M1136 446L1137 447L1136 446M270 447L271 448L270 447M457 447L457 464L458 464L457 447M671 482L672 482L674 447C666.424 449.515 669.379 475.19 671 482M785 447L786 448L785 447M1026 447L1028 451L1028 447L1026 447z"/>
<path style="fill:#a1d1e7; stroke:none;" d="M8 463C11.6621 463 15.3398 463.099 19 462.985C20.6724 462.932 22.4026 462.888 23.9807 462.258C40.2896 455.746 13.6857 439.989 8.6034 450.318C6.9487 453.681 8 459.326 8 463z"/>
<path style="fill:#0a88be; stroke:none;" d="M27 448L30 459C34.1385 455.383 31.1054 450.071 27 448z"/>
<path style="fill:#a1d1e7; stroke:none;" d="M330 463L331 463C335.317 445.044 360.34 445.499 360.942 465C361.289 476.245 349.667 486.057 339.004 479.91C333.007 476.454 331.308 470.322 330 464C323.996 483.579 357.262 490.931 361.942 470C367.07 447.066 332.464 438.947 330 463z"/>
<path style="fill:#217ea5; stroke:none;" d="M522 448L523 449L522 448z"/>
<path style="fill:#a1d1e7; stroke:none;" d="M523.603 449.028C520.694 451.332 521.115 461.913 523.603 464.397C526.977 467.763 536.512 465.901 539.852 463.296C551.03 454.579 531.736 442.587 523.603 449.028z"/>
<path style="fill:#0a88be; stroke:none;" d="M541 448L544 451L541 448z"/>
<path style="fill:#a1d1e7; stroke:none;" d="M674 448L674 460L675 460L675 450L698 449L674 448z"/>
<path style="fill:#0a88be; stroke:none;" d="M754 448L754 473L755 473L754 448M963 448L963 471L964 471L963 448z"/>
<path style="fill:#a1d1e7; stroke:none;" d="M1030.6 449.028C1027.86 451.2 1027.84 462.64 1030.6 464.81C1033.94 467.437 1043.62 465.639 1046.66 463.258C1057.67 454.627 1038.55 442.734 1030.6 449.028z"/>
<path style="fill:#0a88be; stroke:none;" d="M1049 448L1048 449L1051 456L1052 456L1049 448z"/>
<path style="fill:#feffff; stroke:none;" d="M342 449.533C322.565 454.226 329.846 486.341 350 481.467C368.913 476.893 361.84 444.742 342 449.533M524 464C527.585 464 531.453 464.407 534.999 463.852C551.329 461.294 533.459 442.239 524.953 450.832C522.299 453.513 523.991 460.553 524 464z"/>
<path style="fill:#217ea5; stroke:none;" d="M673 449L672 462L674 462L673 449z"/>
<path style="fill:#0a88be; stroke:none;" d="M785 449L785 473L786 473L785 449z"/>
<path style="fill:#feffff; stroke:none;" d="M9 450L9 462C13.6515 462 19.6934 462.951 23.9414 460.682C27.773 458.636 28.875 453.543 24.7716 451.028C20.8251 448.609 13.4786 450 9 450M1030 450L1030 464C1034.25 464 1039.94 464.975 1043.96 463.397C1049.4 461.256 1050.02 454.069 1044.89 451.179C1040.83 448.893 1034.5 450 1030 450z"/>
<path style="fill:#0a88be; stroke:none;" d="M330 452L326 463C329.111 460.666 331.049 455.782 330 452M360 452L363 455L360 452M265 453L262 459L265 453M4 454L4 460L5 460L4 454M545 454L545 460L546 460L545 454z"/>
<path style="fill:#a1d1e7; stroke:none;" d="M549 455L549 460L550 460L549 455z"/>
<path style="fill:#0a88be; stroke:none;" d="M247 456L248 457L247 456M363 456L366 464L363 456M426 456L426 463L427 463L426 456M859 457L858 461L859 457M1026 457L1026 461L1027 461L1026 457M1052 457L1051 462L1052 462L1052 457z"/>
<path style="fill:#a1d1e7; stroke:none;" d="M548 460L546 466L548 460z"/>
<path style="fill:#0a88be; stroke:none;" d="M519 461L519 472C522.536 468.494 521.599 464.939 519 461z"/>
<path style="fill:#a1d1e7; stroke:none;" d="M674 461C677.898 465.46 691.285 463 697 463L697 462L674 461z"/>
<path style="fill:#0a88be; stroke:none;" d="M3 462L4 469L9 466L3 462M251 462L252 463L251 462M544 462L545 463L544 462M23 466L28 467L27 463L23 466z"/>
<path style="fill:#a1d1e7; stroke:none;" d="M697 463L697 467C692.282 467 678.173 464.632 675.028 468.603C672.21 472.161 674 481.637 674 486L675 486L675 469C680.138 469 700.436 472.045 697 463z"/>
<path style="fill:#0a88be; stroke:none;" d="M933 463L932 470L934 470L933 463M1050 463L1047 465L1047 466L1050 463M253 464C254.277 467.844 256.723 467.844 258 464L253 464M425 464L426 465L425 464M542 464L541 466L542 464M690 464L691 465L690 464M1026 464L1026 471L1030 469L1026 464M457 465L456 473L457 473L457 465M859 465L859 481L860 481L859 465z"/>
<path style="fill:#a1d1e7; stroke:none;" d="M545 466L546 467L545 466M7 481C10.0379 481.898 12.8286 481.996 16 482C18.6 482.004 21.4232 482.272 23.9815 481.721C40.3872 478.191 17.4468 457.973 9.02778 468.603C6.86834 471.33 7.81278 477.586 7 481z"/>
<path style="fill:#0a88be; stroke:none;" d="M425 467C425.338 471.281 425.185 476.529 429 479L425 467M530 467L535 472L536 472L538 467L530 467z"/>
<path style="fill:#a1d1e7; stroke:none;" d="M542 469L545 467L542 469z"/>
<path style="fill:#feffff; stroke:none;" d="M9 469L9 481C13.5366 481 21.7754 482.579 25.6821 479.972C28.7209 477.944 28.7206 472.056 25.6821 470.028C21.7264 467.388 13.526 468.736 9 469z"/>
<path style="fill:#0a88be; stroke:none;" d="M327 468L328 475L329 475L327 468M1041 468L1043 472L1041 468z"/>
<path style="fill:#a1d1e7; stroke:none;" d="M538 469L540 474L541 474L542 470L538 469z"/>
<path style="fill:#0a88be; stroke:none;" d="M364 470L357 482C361.634 480.249 365.738 475.07 364 470z"/>
<path style="fill:#a1d1e7; stroke:none;" d="M520 487L520 488C525.881 485.932 523.997 476.232 524 471C529.677 471.185 531.859 473.456 535 478C535.789 472.56 527.228 466.301 523.028 471.603C519.741 475.753 523.426 482.477 520 487M1029 470L1028 488L1030 471L1038 471L1029 470z"/>
<path style="fill:#0a88be; stroke:none;" d="M1113 470L1113 479L1114 479L1113 470M31 471L30 483L31 483C32.7869 478.783 33.9261 474.863 31 471z"/>
<path style="fill:#a1d1e7; stroke:none;" d="M1038 471L1040 474L1038 471z"/>
<path style="fill:#0a88be; stroke:none;" d="M1026 472L1026 475L1027 475L1026 472M4 474C4 477.884 2.41908 484.018 7 485L4 474M537 474L537 476L539 476L539 474L537 474z"/>
<path style="fill:#a1d1e7; stroke:none;" d="M541 474L543 477L541 474z"/>
<path style="fill:#0a88be; stroke:none;" d="M755 474L758 480L755 474z"/>
<path style="fill:#a1d1e7; stroke:none;" d="M1040 474L1042 477L1040 474z"/>
<path style="fill:#0a88be; stroke:none;" d="M519 475L519 484L520 484L519 475M962 476L958 483L962 476M1045 476L1051 484L1045 476M455 477L453 481L455 477z"/>
<path style="fill:#a1d1e7; stroke:none;" d="M543 477L545 480L543 477z"/>
<path style="fill:#0a88be; stroke:none;" d="M934.333 477.667L934.667 478.333L934.333 477.667z"/>
<path style="fill:#a1d1e7; stroke:none;" d="M1042 477L1043 478L1042 477M536 478L538 481L536 478z"/>
<path style="fill:#0a88be; stroke:none;" d="M783 478L784 479L783 478z"/>
<path style="fill:#a1d1e7; stroke:none;" d="M1043 478L1047 486L1048 486L1043 478z"/>
<path style="fill:#0a88be; stroke:none;" d="M255 480L255 483L256 483L255 480M430 480L430 482L432 482L430 480M542 480L542 483L544 482L544 481L542 480z"/>
<path style="fill:#a1d1e7; stroke:none;" d="M545 480L550 488L545 480z"/>
<path style="fill:#0a88be; stroke:none;" d="M334 481L335 482L334 481z"/>
<path style="fill:#a1d1e7; stroke:none;" d="M538 481L539 482L538 481z"/>
<path style="fill:#0a88be; stroke:none;" d="M759 481L760 482L759 481z"/>
<path style="fill:#a1d1e7; stroke:none;" d="M539.333 482.667L539.667 483.333L539.333 482.667z"/>
<path style="fill:#0a88be; stroke:none;" d="M779 482L774 486L779 482M1113 482C1114 485.036 1114.86 485.494 1118 485L1113 482M337 483L338 484L337 483M761 483L761 484L765 485L765 484L761 483M352 484L353 485L352 484z"/>
<path style="fill:#a1d1e7; stroke:none;" d="M540 484L543 488L540 484z"/>
<path style="fill:#0a88be; stroke:none;" d="M347 485L348 486L347 485M770 485L771 486L770 485M947 485L947 487L952 486L947 485M439 486L439 487L442 487L439 486z"/>
<path style="fill:#a1d1e7; stroke:none;" d="M673.333 486.667L673.667 487.333L673.333 486.667M1048 486L1051 488L1051 487L1048 486M2.66667 487.333L3.33333 487.667L2.66667 487.333M7 487L8 488L7 487M93 487L94 488L93 487M95.6667 487.333L96.3333 487.667L95.6667 487.333M98 487L99 488L98 487M101.667 487.333L102.333 487.667L101.667 487.333M104 487L104 488L114 488L104 487M115.667 487.333L116.333 487.667L115.667 487.333M545.667 487.333L546.333 487.667L545.667 487.333M1052 487L1053 488L1052 487M1113.67 487.333L1114.33 487.667L1113.67 487.333M1117.67 487.333L1118.33 487.667L1117.67 487.333M1120 487L1120 488L1138 488L1120 487z"/>
</svg>
