<?xml version="1.0" encoding="utf-8"?>
<!-- Generator: Adobe Illustrator 16.0.0, SVG Export Plug-In . SVG Version: 6.00 Build 0)  -->
<svg version="1.2" baseProfile="tiny" id="Layer_1" xmlns="http://www.w3.org/2000/svg" xmlns:xlink="http://www.w3.org/1999/xlink"
	 x="0px" y="0px" width="1005px" height="220px" viewBox="0 0 1005 220" overflow="scroll" xml:space="preserve">
<g id="Symbols">
	<g id="Logo">
		<g id="pega_logo_horizontal_positive_rgb">
			<path id="Fill-1" fill="#1F2555" d="M441.37,56.678l-0.604-0.287c-0.062-0.037-7.135-3.223-12.665,2.597l-0.705,0.745
				l11.325,5.552L441.37,56.678z M493.218,118.875c0,0-4.938,8.837-7.149,12.104c-2.22,3.291-9.168,5.336-15.176,2.467
				c-2.747-1.307-28.446-16.297-38.28-15.44c-49.777,4.343-63.337-16.169-64.938-18.032c-1.605-1.863-4.597-0.995-2.46,2.668
				c10.92,18.728,43.235,27.413,43.235,27.413c8.451,20.361,9.463,34.631,9.463,34.631c-8.368-6.523-17.403-12.023-26.988-16.588
				c-25.62-17.191-65.725-38.482-120.928-51.826C273.169,52.48,295.265-10.82,398.593,4.15c0,0,20.73,3.397,34.551,12.954
				c0,0-3.319,3.481-7.685,7.841c-4.366,4.35,0.465,7.142,0.465,7.142l21.821,17.155c0.257,9.076,0.631,11.62,7.459,19.836
				c6.829,8.198,33.38,36.007,36.852,39.727C496.08,113.106,493.218,118.875,493.218,118.875z M255.25,33.517
				c-5.465,22.512-5.046,42.345-2.238,59.023c-5.188-1.033-10.453-2.024-15.88-2.906C124.05,71.231,89.94,126.967,103.141,172.16
				c-37.384,14.053-72.518,30.136-100.725,45.932C46.799,111.642,143.253,17.951,224.659,5.639
				C251.239,2.134,258.715,19.377,255.25,33.517L255.25,33.517z"/>
			<path id="Fill-2" fill="#00A6A7" d="M270.915,130.808c44.059-3.483,85.642,0.938,120.006,17.29
				c-25.616-17.191-65.721-38.482-120.928-51.826C268.891,111.528,270.07,124.414,270.915,130.808z M264.558,131.362
				c-49.365,4.711-107.734,20.637-161.417,40.798c-13.2-45.193,20.912-100.929,133.991-82.526
				c5.427,0.882,10.692,1.873,15.877,2.906C255.691,108.483,260.547,121.579,264.558,131.362L264.558,131.362z"/>
			<path id="Fill-3" fill="#1F2555" d="M925.862,114.522l15.309-37.377l15.319,37.377H925.862z M929.806,46.689l-49.387,116.069
				h25.847l10.531-25.841h48.745l10.53,25.841h26.512L953.196,46.689H929.806z M609.948,87.647c0,9.939-7.452,17.57-20.222,17.57
				h-20.229V69.736h19.729c12.773,0,20.723,6.136,20.723,17.579V87.647z M591.384,46.689h-47.422v116.069h25.535v-34.819h19.395
				c26.032,0,46.935-13.937,46.935-40.797V86.81C635.826,63.099,619.082,46.689,591.384,46.689z M774.757,59.649
				c-12.17,11.893-18.341,26.94-18.341,44.738c0,17.815,6.055,32.752,18.016,44.426c11.939,11.662,26.953,17.568,44.622,17.568
				c20.922,0,37.276-6.334,48.633-18.828l0.588-0.659V93.619h-50.479v21.563h26.33v21.761c-6.816,4.06-15.33,6.119-25.312,6.119
				c-10.342,0-19.262-3.543-26.521-10.545c-7.236-6.972-10.91-16.42-10.91-28.032c0-11.62,3.784-21.109,11.237-28.199
				c7.479-7.119,16.876-10.731,27.928-10.731c5.811,0,10.963,0.717,15.302,2.128c4.067,1.323,8.188,3.726,12.269,7.094
				l14.122-17.825c-7.451-6.564-20.862-15.207-43.186-15.207C801.833,41.745,786.932,47.771,774.757,59.649z M679.878,116.345
				h49.991V93.619h-49.991V69.394h62.184V46.689h-87.556v116.069h88.382v-22.713h-63.01V116.345L679.878,116.345z"/>
		</g>
	</g>
</g>
</svg>
