<?xml version="1.0" standalone="no"?>
<!DOCTYPE svg PUBLIC "-//W3C//DTD SVG 20010904//EN"
 "http://www.w3.org/TR/2001/REC-SVG-20010904/DTD/svg10.dtd">
<svg version="1.0" xmlns="http://www.w3.org/2000/svg"
 width="237.000000pt" height="213.000000pt" viewBox="0 0 237.000000 213.000000"
 preserveAspectRatio="xMidYMid meet">

<g transform="translate(0.000000,213.000000) scale(0.100000,-0.100000)"
fill="#000000" stroke="none">
<path d="M1085 2018 c-360 -32 -369 -34 -414 -99 -22 -32 -23 -40 -18 -137 7
-116 21 -152 77 -189 42 -29 43 -29 458 7 375 32 385 34 429 100 25 37 29 90
14 197 -11 71 -30 103 -82 132 -46 26 -51 26 -464 -11z m350 -41 c50 -28 89
-97 81 -145 -22 -144 -205 -191 -293 -76 -100 131 65 303 212 221z m-419 -48
c84 -40 112 -140 61 -217 -86 -130 -292 -73 -292 81 0 120 120 190 231 136z"/>
<path d="M1300 1927 c-56 -28 -64 -117 -13 -157 31 -24 99 -27 130 -5 29 20
46 75 34 107 -22 58 -94 84 -151 55z"/>
<path d="M894 1880 c-59 -24 -72 -104 -25 -151 40 -39 109 -41 146 -4 40 39
37 98 -6 138 -30 28 -72 34 -115 17z"/>
<path d="M335 1570 c-3 -5 -24 -15 -46 -21 -38 -12 -39 -14 -33 -43 11 -53 62
-186 88 -230 65 -112 181 -169 428 -210 l36 -7 4 56 c1 30 2 55 2 55 -22 0
-205 45 -247 60 -96 36 -144 103 -196 278 -22 74 -25 79 -36 62z"/>
<path d="M1238 1523 l-36 -4 10 -36 c9 -33 5 -100 -8 -145 -5 -16 2 -18 54
-18 l60 0 7 56 c4 31 4 78 0 105 -7 53 -2 51 -87 42z"/>
<path d="M1990 1398 c-38 -113 -78 -174 -130 -200 -19 -9 -74 -25 -122 -34
l-87 -17 6 -51 c3 -28 7 -52 8 -54 5 -6 131 19 197 39 87 27 140 73 182 158
45 90 82 204 68 209 -6 2 -27 14 -47 28 -20 13 -37 24 -38 24 -1 0 -18 -46
-37 -102z"/>
<path d="M966 1218 c-9 -28 -27 -259 -21 -268 7 -12 581 -14 588 -2 5 8 -19
247 -27 268 -7 19 -534 21 -540 2z m518 -105 c4 -43 9 -90 12 -105 l6 -28
-262 0 -262 0 6 78 c4 42 9 89 12 105 l6 27 238 0 238 0 6 -77z"/>
<path d="M946 859 c-24 -34 -3 -69 42 -69 14 0 26 9 34 25 9 21 8 28 -7 45
-23 26 -50 25 -69 -1z"/>
<path d="M1098 869 c-21 -12 -24 -49 -6 -67 18 -18 56 -14 68 7 14 27 13 37
-6 55 -18 18 -32 20 -56 5z"/>
<path d="M980 346 c0 -40 -3 -88 -6 -105 l-6 -31 32 11 c23 9 38 9 56 0 14 -6
27 -11 29 -11 3 0 5 47 5 105 l0 105 -55 0 -55 0 0 -74z"/>
<path d="M1344 403 c2 -10 8 -58 12 -106 6 -77 9 -87 23 -81 9 5 33 8 55 9
l38 0 -6 65 c-3 36 -6 80 -6 98 l0 32 -61 0 c-53 0 -60 -2 -55 -17z"/>
</g>
</svg>
