<svg xmlns="http://www.w3.org/2000/svg" viewBox="0 0 107.73747 12.0003">
  <defs>
    <style>
      .a {
        fill: #3b424a;
      }

      .b {
        fill: #fc4710;
        fill-rule: evenodd;
      }
    </style>
  </defs>
  <title>WF_Logo</title>
  <g>
    <path class="a" d="M40.57875,7.79115a2.36925,2.36925,0,1,0,4.73712,0,2.36969,2.36969,0,1,0-4.73712.00048m6.553,0a4.18441,4.18441,0,1,1-8.3688-.00048,4.18447,4.18447,0,1,1,8.3688.00048M53.31315,3.714v1.7376a3.33594,3.33594,0,0,0-1.0728-.169,2.41314,2.41314,0,0,0-1.91472,1.38576v5.1504H48.49347V3.74715h1.83216V4.85307a2.50159,2.50159,0,0,1,2.063-1.27056,3.101,3.101,0,0,1,.92448.13152m6.53664,8.1048L56.41635,8.00619v3.81264H54.58418V.26427h1.83217v6.9648l3.26831-3.48192h2.29441l-3.71376,3.8784,3.96144,4.1928ZM78.34755,3.74715v8.0712h-1.849v-1.0728a2.91762,2.91762,0,0,1-2.44272,1.2384c-2.0304,0-3.301-1.40352-3.301-3.63168V3.74715h1.83216v4.308a1.87324,1.87324,0,0,0,1.91521,2.09616,2.38482,2.38482,0,0,0,1.9968-1.10592V3.74715Zm1.08191,7.08144.72625-1.3872a4.41315,4.41315,0,0,0,2.72351,1.00752c.8088,0,1.31856-.37968,1.31856-.9576,0-.6528-.93024-.80448-1.955-1.069-1.2048-.31056-2.5344-.89328-2.5344-2.3904,0-1.5744,1.3056-2.44992,3.15456-2.44992a4.805,4.805,0,0,1,3.02064.9744l-.72672,1.41936A4.31967,4.31967,0,0,0,82.681,5.11755c-.67632,0-1.12224.33024-1.12224.85824,0,1.36992,4.52256.528,4.52256,3.44976,0,1.51824-1.30368,2.57472-3.15264,2.57472a5.57522,5.57522,0,0,1-3.4992-1.17168m8.02848.99024H89.2901V3.74763H87.45794Zm2.113-10.6464a1.19424,1.19424,0,0,1-1.18848,1.18848,1.18035,1.18035,0,0,1,0-2.36064A1.202,1.202,0,0,1,89.5709,1.17243Zm2.77777,6.61872a2.36925,2.36925,0,1,0,4.73712,0,2.36969,2.36969,0,1,0-4.73712.00048m6.553,0a4.18416,4.18416,0,1,1-8.36831-.00048,4.18423,4.18423,0,1,1,8.36831.00048m8.83584-.57792v4.60512h-1.83216v-4.308a1.87324,1.87324,0,0,0-1.91521-2.09616,2.38418,2.38418,0,0,0-1.9968,1.10592v5.29824h-1.84848V3.74763h1.848v1.0728A2.92166,2.92166,0,0,1,104.436,3.582c2.0304,0,3.30145,1.40352,3.30145,3.63168M39.60243.151,35.725,11.81691H34.12706l-2.7456-7.88832L28.6349,11.81691H27.02066L23.11011.151h2.08032l2.663,8.45424L30.69843.151h1.39776L34.909,8.60523,37.57155.151Zm30.5328.0168V2.03163H65.209V5.04411h4.39392V6.908H65.209v4.90944H63.26211V.16779Z"/>
    <path class="b" d="M19.02963.52155a1.77985,1.77985,0,0,0-2.51708,0l0,0L8.33283,8.70171a.8904.8904,0,0,1-1.25856-1.259l4.40448-4.40448A1.77953,1.77953,0,1,0,8.96211.52155h0L4.55763,4.926A.88994.88994,0,0,1,3.29907,3.66747l.6288-.6288A1.77987,1.77987,0,0,0,1.41123.52107h0L.782,1.15083A2.66928,2.66928,0,0,0,.78168,4.92576L.782,4.926C2.04051,6.18459,3.11,6.41931,4.346,7.65435c1.235,1.23552,1.46976,2.30544,2.72832,3.564a2.66927,2.66927,0,0,0,3.77493.00027l.00027-.00027,8.18016-8.17968A1.77935,1.77935,0,0,0,19.02987.52228L19.02963.522"/>
  </g>
</svg>
